<svg width="20" height="21" viewBox="0 0 20 21" fill="none" xmlns="http://www.w3.org/2000/svg">
<path d="M9.99992 11.3333C9.74621 11.3304 9.49768 11.4052 9.28779 11.5477C9.07789 11.6903 8.91671 11.8937 8.82593 12.1307C8.73515 12.3676 8.71914 12.6266 8.78004 12.873C8.84095 13.1193 8.97585 13.341 9.16659 13.5083V14.6667C9.16659 14.8877 9.25438 15.0996 9.41066 15.2559C9.56694 15.4122 9.7789 15.5 9.99992 15.5C10.2209 15.5 10.4329 15.4122 10.5892 15.2559C10.7455 15.0996 10.8333 14.8877 10.8333 14.6667V13.5083C11.024 13.341 11.1589 13.1193 11.2198 12.873C11.2807 12.6266 11.2647 12.3676 11.1739 12.1307C11.0831 11.8937 10.9219 11.6903 10.7121 11.5477C10.5022 11.4052 10.2536 11.3304 9.99992 11.3333V11.3333ZM14.1666 7.99999V6.33332C14.1666 5.22825 13.7276 4.16845 12.9462 3.38704C12.1648 2.60564 11.105 2.16666 9.99992 2.16666C8.89485 2.16666 7.83504 2.60564 7.05364 3.38704C6.27224 4.16845 5.83325 5.22825 5.83325 6.33332V7.99999C5.17021 7.99999 4.53433 8.26338 4.06549 8.73222C3.59664 9.20106 3.33325 9.83695 3.33325 10.5V16.3333C3.33325 16.9964 3.59664 17.6323 4.06549 18.1011C4.53433 18.5699 5.17021 18.8333 5.83325 18.8333H14.1666C14.8296 18.8333 15.4655 18.5699 15.9344 18.1011C16.4032 17.6323 16.6666 16.9964 16.6666 16.3333V10.5C16.6666 9.83695 16.4032 9.20106 15.9344 8.73222C15.4655 8.26338 14.8296 7.99999 14.1666 7.99999ZM7.49992 6.33332C7.49992 5.67028 7.76331 5.0344 8.23215 4.56556C8.70099 4.09672 9.33688 3.83332 9.99992 3.83332C10.663 3.83332 11.2988 4.09672 11.7677 4.56556C12.2365 5.0344 12.4999 5.67028 12.4999 6.33332V7.99999H7.49992V6.33332ZM14.9999 16.3333C14.9999 16.5543 14.9121 16.7663 14.7558 16.9226C14.5996 17.0789 14.3876 17.1667 14.1666 17.1667H5.83325C5.61224 17.1667 5.40028 17.0789 5.244 16.9226C5.08772 16.7663 4.99992 16.5543 4.99992 16.3333V10.5C4.99992 10.279 5.08772 10.067 5.244 9.91073C5.40028 9.75445 5.61224 9.66666 5.83325 9.66666H14.1666C14.3876 9.66666 14.5996 9.75445 14.7558 9.91073C14.9121 10.067 14.9999 10.279 14.9999 10.5V16.3333Z" fill="#4E4B66"/>
</svg>
