<svg width="55" height="55" viewBox="0 0 55 55" fill="none" xmlns="http://www.w3.org/2000/svg">
<g id="painted-paint-svgrepo-com 1" clip-path="url(#clip0_15_148)">
<path id="Vector" d="M1.22095 53.7791C2.88996 55.448 5.61031 55.3998 7.21896 53.6727L23.7267 35.9488C25.7782 33.7461 29.2476 33.6844 31.3761 35.813L34.5419 38.9788L39.0115 34.5092L29.7512 22.5994L1.22095 53.7791Z" fill="#C75214"/>
<path id="Vector_2" d="M20.4909 15.9885L16.0213 20.4581L19.1872 23.624C21.3156 25.7524 21.254 29.2219 19.0513 31.2734L1.32753 47.7812C-0.39971 49.3899 -0.447942 52.1103 1.22096 53.7791L30.9102 24.0899L20.4909 15.9885Z" fill="#E37E31"/>
<path id="Vector_3" d="M39.0116 34.5091L42.9939 30.5268L33.7337 19.4143L29.7512 25.2488L39.0116 34.5091Z" fill="#E9751C"/>
<path id="Vector_4" d="M24.4733 12.0061L20.491 15.9884L29.7513 25.2489L34.6596 20.3404L24.4733 12.0061Z" fill="#F39624"/>
<g id="Group">
<path id="Vector_5" d="M33.7337 21.2666L31.8815 19.4146L33.7337 21.2666Z" fill="#F7C02D"/>
<path id="Vector_6" d="M35.5857 23.1187L47.5918 11.1126L45.7398 9.2605L38.5852 14.4202L33.7337 21.2665L35.5857 23.1187Z" fill="#F7C02D"/>
</g>
<path id="Vector_7" d="M33.7337 21.2664L45.7398 9.26037L43.8876 7.4082L31.8815 19.4143L33.7337 21.2664Z" fill="#FBE27B"/>
<path id="Vector_8" d="M39.2897 26.8227L51.2959 14.8166L49.4438 12.9646L42.2892 18.1243L37.4377 24.9707L39.2897 26.8227Z" fill="#F7C02D"/>
<path id="Vector_9" d="M37.4377 24.9706L49.4438 12.9645L47.5917 11.1123L35.5856 23.1185L37.4377 24.9706Z" fill="#FBE27B"/>
<path id="Vector_10" d="M42.9939 30.5269L55 18.5208L53.148 16.6687L45.9934 21.8283L41.1419 28.6747L42.9939 30.5269Z" fill="#F7C02D"/>
<path id="Vector_11" d="M41.142 28.6746L53.1481 16.6686L51.2959 14.8164L39.2898 26.8225L41.142 28.6746Z" fill="#FBE27B"/>
<path id="Vector_12" d="M35.5857 23.1187L47.5918 11.1126L45.7398 9.2605L38.5852 14.4202L33.7337 21.2665L35.5857 23.1187Z" fill="#F7C02D"/>
<path id="Vector_13" d="M33.7337 21.2664L45.7398 9.26037L43.8876 7.4082L31.8815 19.4143L33.7337 21.2664Z" fill="#FBE27B"/>
<path id="Vector_14" d="M31.8815 19.4145L43.8877 7.40835L42.0356 5.5564L34.881 10.7161L30.0295 17.5625L31.8815 19.4145Z" fill="#F7C02D"/>
<path id="Vector_15" d="M30.0295 17.5624L42.0356 5.55627L40.1835 3.7041L28.1774 15.7103L30.0295 17.5624Z" fill="#FBE27B"/>
<path id="Vector_16" d="M28.1774 15.7102L40.1835 3.70411L38.3316 1.85205L31.1769 7.01174L26.3254 13.8581L28.1774 15.7102Z" fill="#F7C02D"/>
<path id="Vector_17" d="M26.3254 13.8582L38.3315 1.85217L36.4794 0L24.4733 12.0061L26.3254 13.8582Z" fill="#FBE27B"/>
</g>
<defs>
<clipPath id="clip0_15_148">
<rect width="55" height="55" fill="white"/>
</clipPath>
</defs>
</svg>
