<svg width="55" height="55" viewBox="0 0 55 55" fill="none" xmlns="http://www.w3.org/2000/svg">
<g id="party-popper-svgrepo-com 1">
<path id="Vector" d="M3.2012 52.9676C4.17659 54.0246 8.19417 52.1813 11.3653 50.7031C13.7414 49.5988 23.2504 45.6973 27.977 43.6735C29.2532 43.1277 31.1094 42.4145 32.4457 40.657C33.6317 39.093 36.777 32.45 30.4434 25.7211C24.0153 18.8891 17.3938 20.7754 14.9188 22.5285C13.4621 23.5598 12.2762 25.8844 11.7434 27.066C9.49182 32.059 6.28206 41.207 4.97581 44.8035C4.01761 47.4547 2.2344 51.9192 3.2012 52.9676Z" fill="#FFC107"/>
<path id="Vector_2" d="M11.1074 28.5698C11.1676 29.3175 11.318 30.5335 11.8336 32.8753C12.1859 34.4823 12.7617 36.1667 13.2301 37.2796C14.6352 40.6269 16.6074 41.9761 18.6055 43.0589C22 44.8979 24.3074 45.2417 24.3074 45.2417L21.5402 46.3718C21.5402 46.3718 19.8645 46.0237 17.5785 44.8979C15.4 43.8237 13.1312 42.0062 11.4727 38.4483C10.7551 36.9058 10.3383 35.4105 10.0977 34.2245C9.80117 32.755 9.75391 31.9214 9.75391 31.9214L11.1074 28.5698Z" fill="#FF8F00"/>
<path id="Vector_3" d="M7.70858 37.2839C7.70858 37.2839 8.05233 40.0726 10.3555 43.5917C13.0539 47.7082 16.8223 48.3828 16.8223 48.3828L14.3172 49.414C14.3172 49.414 11.5199 48.5589 8.86014 44.9281C7.20155 42.6636 6.73749 39.9566 6.73749 39.9566L7.70858 37.2839Z" fill="#FF8F00"/>
<path id="Vector_4" d="M5.32384 43.8926C5.32384 43.8926 5.95118 46.2988 7.32618 48.0949C8.96329 50.2391 11.0473 50.8621 11.0473 50.8621L9.12657 51.7129C9.12657 51.7129 7.66993 51.4078 6.07579 49.3883C4.86407 47.8543 4.52032 46.0926 4.52032 46.0926L5.32384 43.8926Z" fill="#FF8F00"/>
<path id="Vector_5" opacity="0.44" d="M4.27969 50.0027C4.19375 49.8094 4.19375 49.5902 4.28398 49.4012L15.2281 26.7051L17.0285 33.4727L5.51289 50.1059C5.20351 50.5699 4.50742 50.5098 4.27969 50.0027Z" fill="#FFFDE7"/>
<path id="Vector_6" d="M17.8965 35.7457C23.0097 41.727 28.832 40.9793 30.7699 39.4668C32.7121 37.95 34.2461 32.7379 29.1543 26.8555C23.8176 20.6938 17.7761 22.4512 16.3797 23.7832C14.9832 25.1153 13.2043 30.2586 17.8965 35.7457Z" fill="url(#paint0_linear_15_167)"/>
<path id="Vector_7" d="M35.4578 38.2079C33.593 36.6438 32.6004 36.9231 31.2684 37.4774C29.5496 38.1907 26.8469 38.7192 23.1774 37.4774L24.2817 34.8177C26.4602 35.5524 28.0371 35.1958 29.3992 34.3923C31.1524 33.361 33.55 31.9474 37.2797 35.0798C38.8352 36.386 40.4293 37.254 41.5981 36.8587C42.4489 36.5751 42.9 35.3075 43.1278 34.2978C43.1492 34.2075 43.1836 33.9497 43.2094 33.722C43.4156 32.145 43.7594 28.7419 46.2946 27.0017C49.0059 25.1411 51.8547 25.1411 51.8547 25.1411L52.3703 30.263C51.0598 30.0696 50.1489 30.336 49.3797 30.7614C46.4836 32.3728 49.0059 38.5603 44.4985 40.6399C40.1629 42.6552 36.618 39.179 35.4578 38.2079Z" fill="#03A9F4"/>
<path id="Vector_8" d="M19.5078 31.6766L17.643 30.0051C21.0676 26.1809 20.1652 23.3707 19.5078 21.3254C19.3746 20.9129 19.25 20.5219 19.1684 20.148C18.8762 18.8246 18.816 17.673 18.9063 16.6676C17.5914 15.0305 17.0113 13.316 16.9727 13.2C16.1734 10.7809 16.775 8.42188 18.1543 6.20898C20.943 1.71875 25.9918 1.71875 25.9918 1.71875L27.6762 6.22617C26.3957 6.17461 22.1977 6.23906 20.9086 8.27148C19.2801 10.8324 20.35 12.4137 20.4274 12.5941C20.741 12.1859 21.059 11.8594 21.3426 11.6059C23.4008 9.77969 25.1883 9.51758 26.327 9.6207C27.6074 9.73672 28.7676 10.3813 29.5969 11.4383C30.5035 12.5984 30.8774 14.1066 30.5895 15.4773C30.3102 16.8137 29.4207 17.9438 28.0844 18.6613C25.7512 19.916 23.809 19.7441 22.507 19.3102C22.5156 19.3402 22.5199 19.3746 22.5285 19.4047C22.5758 19.6195 22.6703 19.9203 22.782 20.2684C23.5426 22.623 24.9563 26.3613 19.5078 31.6766ZM22.666 15.5504C22.9152 15.7309 23.1774 15.8812 23.4481 15.9887C24.3504 16.3496 25.3344 16.2293 26.4516 15.6277C27.109 15.2754 27.1863 14.8973 27.2121 14.7727C27.2895 14.3988 27.1606 13.9219 26.8813 13.5652C26.6363 13.2516 26.3527 13.0883 26.0133 13.0539C25.3688 12.998 24.4965 13.4062 23.6242 14.184C23.2074 14.5578 22.8895 15.0176 22.666 15.5504Z" fill="#F44336"/>
<path id="Vector_9" d="M26.9715 32.3771L24.3031 32.304C24.3031 32.304 25.5707 25.1454 29.6742 23.9423C30.4433 23.7188 31.2855 23.4911 32.132 23.3665C32.6347 23.2892 33.4297 23.1731 33.8207 23.0271C33.9109 22.3524 33.6273 21.4931 33.3093 20.5177C33.0601 19.7614 32.8023 18.9837 32.6648 18.1329C32.3984 16.4743 32.841 15.0091 33.9109 13.9993C35.2172 12.7747 37.3269 12.3837 39.7074 12.9251C41.0652 13.2345 42.0664 13.9005 42.9472 14.4849C44.2062 15.3228 44.941 15.7481 46.4793 14.7126C48.3398 13.4579 45.9078 8.54658 44.6144 5.71064L49.4398 3.69971C50.0886 5.11768 53.2211 12.4138 51.1543 16.5774C50.4582 17.9782 49.2594 18.9063 47.6867 19.2544C44.2664 20.0192 42.264 18.6872 40.8031 17.7161C40.1113 17.2563 39.5054 16.8954 38.848 16.7063C34.2804 15.4044 40.657 22.1247 37.6707 25.1454C35.8789 26.9544 31.5004 27.4313 31.2168 27.5001C28.398 28.179 26.9715 32.3771 26.9715 32.3771Z" fill="#F48FB1"/>
<path id="Vector_10" d="M18.902 16.6675C18.8203 17.6128 18.7816 18.1757 19.0266 19.4046C20.2082 20.2726 22.782 20.2726 22.782 20.2726C22.6703 19.9245 22.5715 19.6237 22.5285 19.4089C22.5199 19.3788 22.5156 19.3444 22.507 19.3144C19.8902 18.0081 18.902 16.6675 18.902 16.6675Z" fill="#C92B27"/>
<g id="Group">
<path id="Vector_11" d="M13.5481 20.9L9.1051 18.7215L11.318 15.5247L14.8028 17.8321L13.5481 20.9Z" fill="#FFC107"/>
</g>
<g id="Group_2">
<path id="Vector_12" d="M6.99963 14.8673C4.73088 14.5622 2.41917 12.6372 2.16565 12.4181L4.39573 9.80127C5.07034 10.3728 6.5012 11.331 7.4594 11.4599L6.99963 14.8673Z" fill="#FB8C00"/>
</g>
<g id="Group_3">
<path id="Vector_13" d="M11.0043 9.13955L7.73865 8.06963C8.11248 6.92666 8.2113 5.69346 8.01794 4.50322L11.4125 3.95752C11.6918 5.68486 11.55 7.47666 11.0043 9.13955Z" fill="#03A9F4"/>
</g>
<g id="Group_4">
<path id="Vector_14" d="M31.3986 6.58486L34.7566 5.8501L35.7264 10.2828L32.3684 11.0175L31.3986 6.58486Z" fill="#FB8C00"/>
</g>
<g id="Group_5">
<path id="Vector_15" d="M39.7289 7.6355L37.3656 5.13901C38.6031 3.96597 38.8867 2.43198 38.8867 2.41479L42.2812 2.96909C42.2383 3.23979 41.8043 5.67183 39.7289 7.6355Z" fill="#FFC107"/>
</g>
<g id="Group_6">
<path id="Vector_16" d="M41.0421 20.8745L44.0443 19.9365L45.0699 23.2176L42.0677 24.1556L41.0421 20.8745Z" fill="#FB8C00"/>
</g>
<g id="Group_7">
<path id="Vector_17" d="M41.916 48.5675L38.5 48.1636C38.6461 46.9476 37.7395 45.4566 37.4902 45.1257L40.2402 43.0632C40.4465 43.3339 42.2383 45.8132 41.916 48.5675Z" fill="#F44336"/>
</g>
<g id="Group_8">
<path id="Vector_18" d="M51.7215 44.2106C50.4367 44.0172 49.1219 43.9399 47.8242 43.9871L47.7082 40.5496C49.2164 40.4981 50.7418 40.584 52.2328 40.8117L51.7215 44.2106Z" fill="#FB8C00"/>
</g>
<g id="Group_9">
<path id="Vector_19" d="M47.0997 48.9423L49.5146 46.4961L52.8386 49.7776L50.4234 52.2238L47.0997 48.9423Z" fill="#F48FB1"/>
</g>
<path id="Vector_20" d="M40.0035 27.2126L42.4871 30.0525L39.6473 32.536L37.1637 29.6962L40.0035 27.2126Z" fill="#F44336"/>
</g>
<defs>
<linearGradient id="paint0_linear_15_167" x1="31.9618" y1="26.5715" x2="19.1713" y2="34.2457" gradientUnits="userSpaceOnUse">
<stop offset="0.024" stop-color="#8F4700"/>
<stop offset="1" stop-color="#703E2D"/>
</linearGradient>
</defs>
</svg>
