<svg width="16" height="17" viewBox="0 0 16 17" fill="none" xmlns="http://www.w3.org/2000/svg">
<path fill-rule="evenodd" clip-rule="evenodd" d="M8.00065 13.7516C8 13.7513 3.57923 16.0756 3.57923 16.0756C3.22478 16.2617 2.8111 15.961 2.8787 15.5667L3.72281 10.6437L0.146464 7.15748C-0.140377 6.87804 0.0180135 6.3916 0.41399 6.33398L5.35662 5.61575L7.567 1.13702C7.65553 0.957709 7.82777 0.867889 8 0.867889C8.17223 0.867889 8.34447 0.957709 8.433 1.13702L10.6434 5.61575L15.586 6.33398C15.982 6.3916 16.1404 6.87804 15.8535 7.15748L12.2772 10.6437L13.1213 15.5667C13.1889 15.961 12.7752 16.2617 12.4208 16.0756L8.00065 13.7516Z" fill="#FFBB04"/>
</svg>
