<svg width="41" height="41" viewBox="0 0 41 41" fill="none" xmlns="http://www.w3.org/2000/svg">
<g id="award" clip-path="url(#clip0_8_87)">
<path id="Vector" d="M20 7.00903C18.2405 7.00901 16.5206 7.53704 15.0576 8.52634C13.5947 9.51565 12.4544 10.9218 11.7811 12.5669C11.1078 14.2121 10.9316 16.0224 11.2748 17.7689C11.6181 19.5154 12.4653 21.1197 13.7095 22.3788C14.9536 23.638 16.5387 24.4955 18.2644 24.8429C19.99 25.1903 21.7787 25.012 23.4043 24.3306C25.0298 23.6491 26.4192 22.4951 27.3967 21.0145C28.3742 19.5339 28.8959 17.7932 28.8959 16.0125C28.8933 13.6254 27.9552 11.337 26.2875 9.64907C24.6197 7.96118 22.3585 7.01174 20 7.00903ZM20 22.5157C18.7291 22.5157 17.4867 22.1343 16.43 21.4197C15.3733 20.7052 14.5497 19.6895 14.0633 18.5011C13.577 17.3128 13.4497 16.0052 13.6976 14.7437C13.9456 13.4821 14.5576 12.3234 15.4562 11.4138C16.3549 10.5043 17.4999 9.88495 18.7463 9.63402C19.9928 9.38309 21.2848 9.51188 22.459 10.0041C23.6331 10.4963 24.6367 11.3299 25.3428 12.3994C26.0488 13.4689 26.4257 14.7262 26.4257 16.0125C26.4237 17.7366 25.7461 19.3896 24.5415 20.6088C23.3369 21.828 21.7036 22.5138 20 22.5157ZM35.0367 16.293C35.4552 15.4662 35.5954 14.5237 35.436 13.6088C35.2766 12.6939 34.8264 11.8567 34.1537 11.2246L32.5032 9.65672C32.2425 9.4196 32.0629 9.10483 31.9904 8.75778L31.4741 6.52737C31.2696 5.62171 30.7784 4.80844 30.0752 4.21129C29.372 3.61413 28.4954 3.26576 27.5786 3.21918L25.3188 3.09214C24.9685 3.0801 24.631 2.95579 24.355 2.73712L22.5426 1.36409C21.8107 0.803414 20.9179 0.5 20 0.5C19.0821 0.5 18.1893 0.803414 17.4574 1.36409L15.6453 2.73689C15.3692 2.9557 15.0316 3.0801 14.6812 3.09214L12.4212 3.21941C11.5044 3.26598 10.6278 3.61434 9.92457 4.21148C9.22139 4.80862 8.73016 5.62187 8.52562 6.52752L8.00933 8.75801C7.93676 9.10508 7.75719 9.41988 7.49651 9.65704L5.84621 11.2246C5.17359 11.8567 4.72336 12.6939 4.56399 13.6088C4.40462 14.5236 4.54484 15.4661 4.96332 16.293L5.98439 18.3375C6.14931 18.6506 6.21171 19.0085 6.16256 19.3598L5.894 21.6345C5.78016 22.5563 5.96691 23.4905 6.42584 24.2951C6.88477 25.0996 7.59077 25.7304 8.43646 26.0916L10.5174 26.9936C10.5499 27.0076 10.5804 27.0226 10.611 27.0376V39.25C10.611 39.4582 10.6624 39.663 10.7605 39.846C10.8586 40.029 11.0002 40.1843 11.1727 40.2978C11.3451 40.4113 11.5428 40.4795 11.7479 40.496C11.9529 40.5126 12.1588 40.4771 12.3468 40.3927L20 36.9578L27.6531 40.3927C27.8411 40.4771 28.047 40.5126 28.2521 40.496C28.4571 40.4795 28.6548 40.4113 28.8272 40.2978C28.9997 40.1843 29.1414 40.029 29.2395 39.846C29.3375 39.663 29.3889 39.4582 29.3889 39.25V27.0376C29.4198 27.0226 29.4501 27.0076 29.4827 26.9935L31.5635 26.0916C32.4092 25.7304 33.1152 25.0996 33.5741 24.2951C34.0331 23.4906 34.2198 22.5563 34.106 21.6345L33.8374 19.3598C33.7883 19.0085 33.8507 18.6506 34.0156 18.3375L35.0367 16.293ZM20.5006 34.4475C20.343 34.3767 20.1724 34.3402 19.9999 34.3402C19.8274 34.3402 19.6569 34.3767 19.4992 34.4475L13.0813 37.328V30.254C13.4717 30.6568 13.9376 30.9767 14.4516 31.1951C14.9657 31.4135 15.5176 31.5259 16.0751 31.5259C16.4971 31.5255 16.9167 31.4624 17.3204 31.3384L19.4871 30.6756C19.8204 30.5656 20.1796 30.5656 20.5129 30.6756L22.6796 31.3384C23.4163 31.5683 24.2014 31.589 24.9489 31.398C25.6965 31.2071 26.3779 30.812 26.9186 30.2558V37.328L20.5006 34.4475ZM32.832 15.1654L31.811 17.2099C31.4264 17.9627 31.2777 18.8163 31.3848 19.6568L31.6533 21.9316C31.7045 22.317 31.6281 22.7088 31.4359 23.0457C31.2438 23.3825 30.9468 23.6455 30.5913 23.7934L28.5107 24.6952C27.7379 25.0216 27.0818 25.5787 26.63 26.2923L25.3911 28.2096C25.1855 28.5383 24.878 28.7888 24.5168 28.9219C24.1555 29.0549 23.7609 29.0631 23.3946 28.945L21.2277 28.2822C20.4285 28.0296 19.5721 28.0296 18.7729 28.2822L16.6058 28.9448C16.2395 29.0628 15.8449 29.0547 15.4837 28.9216C15.1225 28.7886 14.815 28.5381 14.6094 28.2094L13.3705 26.2924C12.9187 25.5788 12.2626 25.0217 11.4899 24.6953L9.40905 23.7934C9.05348 23.6455 8.75636 23.3825 8.56415 23.0456C8.37195 22.7087 8.2955 22.3168 8.34675 21.9312L8.61532 19.6565C8.72235 18.8161 8.57362 17.9626 8.18896 17.2099L7.16789 15.1651C6.98948 14.8205 6.92892 14.4259 6.99567 14.0428C7.06242 13.6597 7.25272 13.3098 7.53681 13.0478L9.18734 11.48C9.80312 10.9058 10.2313 10.1552 10.4148 9.32835L10.9311 7.09771C11.0131 6.71766 11.2174 6.37585 11.5118 6.12575C11.8062 5.87564 12.1742 5.73133 12.5583 5.71538L14.8184 5.58811C15.6548 5.54887 16.4596 5.25245 17.1253 4.73838L18.9377 3.36559C19.242 3.12785 19.6156 2.9989 20 2.9989C20.3844 2.9989 20.758 3.12785 21.0623 3.36559L22.8744 4.73838C23.5401 5.25245 24.3449 5.54887 25.1813 5.58811L27.4417 5.71538C27.8258 5.73126 28.1939 5.87553 28.4884 6.12562C28.7829 6.37572 28.9871 6.71754 29.0693 7.09763L29.5855 9.32804C29.769 10.1549 30.1972 10.9055 30.813 11.4798L32.4634 13.0475C32.7476 13.3096 32.9379 13.6595 33.0046 14.0427C33.0713 14.4259 33.0106 14.8206 32.8321 15.1652L32.832 15.1654Z" fill="#016141"/>
</g>
<defs>
<clipPath id="clip0_8_87">
<rect width="40" height="40" fill="white" transform="translate(0.5 0.5)"/>
</clipPath>
</defs>
</svg>
