<svg width="25" height="24" viewBox="0 0 25 24" fill="none" xmlns="http://www.w3.org/2000/svg">
<g id="bar_chart" clip-path="url(#clip0_136_220)">
<path id="Vector" d="M6.9 9.2H7.1C7.87 9.2 8.5 9.83 8.5 10.6V17.6C8.5 18.37 7.87 19 7.1 19H6.9C6.13 19 5.5 18.37 5.5 17.6V10.6C5.5 9.83 6.13 9.2 6.9 9.2ZM12.5 5C13.27 5 13.9 5.63 13.9 6.4V17.6C13.9 18.37 13.27 19 12.5 19C11.73 19 11.1 18.37 11.1 17.6V6.4C11.1 5.63 11.73 5 12.5 5ZM18.1 13C18.87 13 19.5 13.63 19.5 14.4V17.6C19.5 18.37 18.87 19 18.1 19C17.33 19 16.7 18.37 16.7 17.6V14.4C16.7 13.63 17.33 13 18.1 13Z" fill="#57836B"/>
</g>
<defs>
<clipPath id="clip0_136_220">
<rect width="24" height="24" fill="white" transform="translate(0.5)"/>
</clipPath>
</defs>
</svg>
