<svg width="41" height="41" viewBox="0 0 41 41" fill="none" xmlns="http://www.w3.org/2000/svg">
<g id="Group">
<path id="Vector" d="M26.8261 12.8372C26.3665 12.3876 25.6213 12.3876 25.1615 12.8372L18.6459 19.2092L16.8384 17.4416C16.3788 16.9922 15.6335 16.9922 15.1739 17.4417L11.8448 20.6975C11.3851 21.147 11.3851 21.8759 11.8448 22.3255L17.8137 28.1629C18.273 28.6122 19.0187 28.6125 19.4783 28.1629L30.1554 17.7209C30.6148 17.2718 30.615 16.5424 30.1554 16.093L26.8261 12.8372ZM18.6459 25.7211L14.3416 21.5114L16.0061 19.8836L17.8136 21.6511C18.2732 22.1006 19.0185 22.1005 19.4781 21.651L25.9938 15.279L27.6583 16.9069L18.6459 25.7211Z" fill="#016141"/>
<path id="Vector_2" d="M38.4089 16.9354C38.9294 15.1939 38.9916 13.4452 38.9942 13.3623C39.0051 13.0255 38.8704 12.7003 38.6246 12.4698C38.564 12.413 37.2823 11.2194 35.6818 10.356C35.4966 8.54689 34.8842 6.9058 34.8549 6.82814C34.7361 6.51291 34.4872 6.264 34.1719 6.14518C34.0942 6.11588 32.4532 5.50353 30.6442 5.3183C29.7807 3.71775 28.587 2.43611 28.5303 2.37557C28.2998 2.12979 27.9754 1.99494 27.6378 2.00596C27.5549 2.00861 25.8061 2.0708 24.0646 2.59143C22.6688 1.4408 21.0933 0.657754 21.0185 0.620879C20.6917 0.459707 20.3085 0.459707 19.9817 0.620879C19.9069 0.657754 18.3314 1.4408 16.9356 2.59143C15.1941 2.0708 13.4453 2.00869 13.3624 2.00596C13.0255 1.99502 12.7004 2.12979 12.4699 2.37557C12.4131 2.43611 11.2195 3.71783 10.356 5.3183C8.54697 5.50353 6.90596 6.11588 6.8283 6.14518C6.51299 6.264 6.26416 6.51291 6.14525 6.82814C6.11596 6.9058 5.50354 8.54689 5.31838 10.356C3.71791 11.2194 2.43619 12.413 2.37564 12.4698C2.12986 12.7003 1.9951 13.0255 2.00596 13.3623C2.00861 13.4453 2.0708 15.1939 2.59143 16.9354C1.4408 18.3313 0.657754 19.9068 0.620879 19.9816C0.459707 20.3084 0.459707 20.6914 0.620879 21.0182C0.657754 21.093 1.44072 22.6688 2.5915 24.0646C2.07104 25.806 2.00869 27.5546 2.00604 27.6375C1.99518 27.9744 2.12986 28.2996 2.37572 28.5301C2.43627 28.5869 3.71799 29.7803 5.31838 30.6438C5.50361 32.453 6.11596 34.0941 6.14525 34.1717C6.26416 34.487 6.51307 34.736 6.82838 34.8548C6.90604 34.884 8.54697 35.4962 10.356 35.6813C11.2194 37.282 12.4131 38.5637 12.4699 38.6242C12.7004 38.8699 13.0237 39.0037 13.3624 38.9938C13.4453 38.9911 15.1938 38.9288 16.9352 38.4083C18.3311 39.559 19.9067 40.3421 19.9816 40.3791C20.3084 40.5402 20.6915 40.5403 21.0183 40.3791C21.0931 40.3421 22.6688 39.559 24.0647 38.4083C25.8061 38.9288 27.5546 38.9911 27.6375 38.9938C27.9742 39.0028 28.2995 38.8699 28.53 38.6242C28.5868 38.5637 29.7806 37.282 30.644 35.6813C32.453 35.4962 34.0939 34.884 34.1716 34.8548C34.4869 34.736 34.7358 34.487 34.8547 34.1717C34.884 34.0941 35.4964 32.453 35.6816 30.6438C37.282 29.7803 38.5637 28.5869 38.6242 28.5301C38.8701 28.2996 39.0048 27.9744 38.9939 27.6375C38.9913 27.5545 38.9289 25.806 38.4085 24.0646C39.5592 22.6688 40.3421 21.093 40.3791 21.0181C40.5402 20.6914 40.5402 20.3084 40.3791 19.9816C40.3424 19.9068 39.5594 18.3313 38.4089 16.9354ZM35.9875 24.2134C36.3878 25.2708 36.5501 26.4908 36.6135 27.1751C36.0867 27.6133 35.1136 28.3579 34.0772 28.8253C33.669 29.0092 33.4014 29.4098 33.3876 29.8574C33.3528 30.9876 33.0358 32.1768 32.8324 32.8333C32.178 33.0366 30.994 33.3521 29.8576 33.3872C29.41 33.4011 29.0095 33.6688 28.8255 34.0769C28.361 35.1073 27.6136 36.0842 27.1745 36.613C26.4896 36.5495 25.2706 36.387 24.2137 35.987C23.7949 35.8286 23.3224 35.9226 22.9962 36.2293C22.1753 37.0011 21.119 37.6491 20.4995 37.9985C19.8813 37.6503 18.8289 37.0048 18.004 36.2293C17.6783 35.9231 17.2057 35.8284 16.7865 35.987C15.7294 36.3871 14.5101 36.5495 13.8257 36.613C13.3863 36.084 12.6392 35.1071 12.1746 34.0769C11.9906 33.6687 11.5901 33.4011 11.1425 33.3872C10.0128 33.3524 8.82408 33.0358 8.16744 32.8324C7.964 32.1754 7.64736 30.9869 7.61252 29.8574C7.59877 29.4099 7.33111 29.0093 6.92291 28.8253C5.89268 28.3607 4.91565 27.6133 4.38682 27.1742C4.45025 26.4893 4.61268 25.2703 5.01268 24.2134C5.17119 23.7946 5.07713 23.322 4.77041 22.9958C3.99869 22.175 3.3508 21.1188 3.00135 20.4994C3.34955 19.8813 3.99494 18.8288 4.77049 18.004C5.07721 17.6778 5.17119 17.2052 5.01268 16.7864C4.61252 15.7294 4.45018 14.51 4.38674 13.8257C4.91588 13.3863 5.89283 12.6391 6.92291 12.1745C7.33111 11.9905 7.59877 11.5899 7.61252 11.1423C7.64736 10.0122 7.96432 8.82291 8.16768 8.1665C8.82205 7.96322 10.006 7.64752 11.1424 7.61252C11.5899 7.59869 11.9905 7.33104 12.1746 6.92283C12.6391 5.89252 13.3865 4.91549 13.8256 4.38666C14.5105 4.45018 15.7297 4.61252 16.7865 5.0126C17.2053 5.17104 17.6778 5.07705 18.0041 4.77041C18.8249 3.99869 19.8811 3.3508 20.5006 3.00135C21.1188 3.34955 22.171 3.99494 22.996 4.77041C23.3221 5.07713 23.7947 5.17104 24.2135 5.0126C25.271 4.61229 26.491 4.44994 27.1753 4.38658C27.6135 4.9133 28.3581 5.88627 28.8255 6.92283C29.0095 7.33111 29.4101 7.59869 29.8577 7.61252C30.9878 7.64736 32.1771 7.96432 32.8335 8.1676C33.0368 8.82197 33.3525 10.0059 33.3876 11.1423C33.4014 11.5899 33.669 11.9903 34.0772 12.1744C35.1075 12.639 36.0846 13.3865 36.6134 13.8256C36.5499 14.5105 36.3875 15.7296 35.9875 16.7863C35.829 17.2051 35.923 17.6777 36.2297 18.0039C37.0015 18.8249 37.6494 19.8811 37.9989 20.5006C37.6507 21.1186 37.0053 22.171 36.2299 22.9957C35.9231 23.3221 35.8291 23.7946 35.9875 24.2134Z" fill="#016141"/>
</g>
</svg>
