<svg width="20" height="20" viewBox="0 0 20 20" fill="none" xmlns="http://www.w3.org/2000/svg">
<g id="clock ">
<path id="Vector" d="M9.16683 1.66675C7.51866 1.66675 5.90749 2.15549 4.53708 3.07117C3.16667 3.98685 2.09857 5.28834 1.46784 6.81105C0.837107 8.33377 0.672079 10.0093 0.993623 11.6258C1.31517 13.2423 2.10884 14.7272 3.27428 15.8926C4.43971 17.0581 5.92457 17.8517 7.54108 18.1733C9.15759 18.4948 10.8331 18.3298 12.3559 17.6991C13.8786 17.0683 15.1801 16.0002 16.0957 14.6298C17.0114 13.2594 17.5002 11.6483 17.5002 10.0001C17.5002 8.90573 17.2846 7.8221 16.8658 6.81105C16.447 5.80001 15.8332 4.88135 15.0594 4.10752C14.2856 3.3337 13.3669 2.71987 12.3559 2.30109C11.3448 1.8823 10.2612 1.66675 9.16683 1.66675ZM9.16683 16.6667C7.84829 16.6667 6.55936 16.2758 5.46303 15.5432C4.3667 14.8107 3.51222 13.7695 3.00764 12.5513C2.50305 11.3331 2.37103 9.99269 2.62826 8.69948C2.8855 7.40627 3.52044 6.21839 4.45279 5.28604C5.38514 4.35369 6.57302 3.71875 7.86623 3.46151C9.15944 3.20428 10.4999 3.3363 11.7181 3.84088C12.9362 4.34547 13.9774 5.19995 14.71 6.29628C15.4425 7.39261 15.8335 8.68154 15.8335 10.0001C15.8335 11.7682 15.1311 13.4639 13.8809 14.7141C12.6306 15.9644 10.9349 16.6667 9.16683 16.6667ZM10.0002 9.94175V5.83342C10.0002 5.6124 9.91237 5.40044 9.75609 5.24416C9.59981 5.08788 9.38785 5.00008 9.16683 5.00008C8.94582 5.00008 8.73386 5.08788 8.57758 5.24416C8.4213 5.40044 8.3335 5.6124 8.3335 5.83342V10.0001C8.3335 10.0001 8.3335 10.0584 8.3335 10.0917C8.31299 10.2612 8.34499 10.4328 8.42517 10.5834L9.67517 12.7501C9.78567 12.9424 9.96804 13.0829 10.1821 13.1407C10.3962 13.1985 10.6246 13.1689 10.8168 13.0584C11.0091 12.9479 11.1496 12.7655 11.2074 12.5514C11.2653 12.3373 11.2357 12.109 11.1252 11.9167L10.0002 9.94175Z" fill="#f6f4f1"/>
</g>
</svg>
