<svg width="41" height="40" viewBox="0 0 41 40" fill="none" xmlns="http://www.w3.org/2000/svg">
<g id="clock ">
<path id="Vector" d="M18.6662 3.33337C15.3698 3.33337 12.1475 4.31086 9.40668 6.14221C6.66586 7.97357 4.52965 10.5765 3.26819 13.622C2.00673 16.6674 1.67668 20.0185 2.31976 23.2515C2.96285 26.4846 4.5502 29.4543 6.88107 31.7852C9.21195 34.116 12.1817 35.7034 15.4147 36.3465C18.6477 36.9896 21.9988 36.6595 25.0442 35.398C28.0897 34.1366 30.6927 32.0004 32.524 29.2595C34.3554 26.5187 35.3329 23.2964 35.3329 20C35.3329 17.8113 34.9018 15.6441 34.0642 13.622C33.2266 11.5999 31.9989 9.76257 30.4513 8.21493C28.9037 6.66728 27.0663 5.43963 25.0442 4.60205C23.0222 3.76447 20.8549 3.33337 18.6662 3.33337ZM18.6662 33.3334C16.0291 33.3334 13.4512 32.5514 11.2586 31.0863C9.06593 29.6212 7.35696 27.5388 6.34779 25.1025C5.33862 22.6661 5.07458 19.9853 5.58905 17.3988C6.10352 14.8124 7.37339 12.4367 9.2381 10.572C11.1028 8.70725 13.4786 7.43737 16.065 6.9229C18.6514 6.40843 21.3323 6.67248 23.7686 7.68165C26.205 8.69082 28.2874 10.3998 29.7524 12.5924C31.2175 14.7851 31.9995 17.363 31.9995 20C31.9995 23.5363 30.5948 26.9276 28.0943 29.4281C25.5938 31.9286 22.2024 33.3334 18.6662 33.3334ZM20.3329 19.8834V11.6667C20.3329 11.2247 20.1573 10.8008 19.8447 10.4882C19.5321 10.1756 19.1082 10 18.6662 10C18.2242 10 17.8002 10.1756 17.4877 10.4882C17.1751 10.8008 16.9995 11.2247 16.9995 11.6667V20C16.9995 20 16.9995 20.1167 16.9995 20.1834C16.9585 20.5222 17.0225 20.8654 17.1829 21.1667L19.6829 25.5C19.9039 25.8846 20.2686 26.1656 20.6968 26.2813C21.125 26.3969 21.5816 26.3377 21.9662 26.1167C22.3507 25.8957 22.6318 25.531 22.7474 25.1028C22.8631 24.6745 22.8039 24.2179 22.5829 23.8334L20.3329 19.8834Z" fill="#f6f4f1"/>
</g>
</svg>
