<svg width="46" height="45" viewBox="0 0 46 45" fill="none" xmlns="http://www.w3.org/2000/svg">
<g id="communication-cost-svgrepo-com 1">
<path id="Vector" d="M11.4688 27.5924C13.721 27.5924 15.6029 25.9845 15.9354 23.8075C15.9558 23.6741 16.006 23.5469 16.0821 23.4355C16.1583 23.3241 16.2586 23.2312 16.3756 23.1638L16.4372 23.1282C16.5612 23.0567 16.7005 23.0158 16.8435 23.0089C22.5161 22.736 26.9002 19.0387 26.9002 14.6626C26.9002 10.0948 22.1377 6.30029 16.1749 6.30029C10.2125 6.30029 5.45005 10.0948 5.45005 14.6626C5.45005 17.8399 7.76913 20.7376 11.4097 22.1529L11.6387 22.2563C11.7951 22.3283 11.9276 22.4435 12.0205 22.5884C12.1133 22.7334 12.1627 22.9019 12.1627 23.074C12.1627 24.7469 11.5067 26.3072 10.39 27.4632C10.7431 27.5493 11.1053 27.5927 11.4688 27.5924ZM11.4688 29.3924C10.335 29.3924 9.24262 29.0926 8.28373 28.5325C8.10747 28.4428 7.97695 28.3277 7.8844 28.1755C7.62631 27.7507 7.76144 27.1971 8.18622 26.939C9.36294 26.224 10.1502 25.0183 10.3256 23.6543C10.3501 23.4637 10.3627 23.2699 10.3627 23.074H11.2627L10.8867 23.8917L10.7075 23.8094L11.0835 22.9917L10.7575 23.8305C10.6125 23.7741 10.4686 23.7154 10.3256 23.6543C6.28035 21.9235 3.64996 18.5063 3.64996 14.6626C3.64996 8.99932 9.29672 4.50024 16.1748 4.50024C23.0533 4.50024 28.7001 8.99928 28.7001 14.6626C28.7001 19.9171 23.8241 24.2016 17.5711 24.7627C17.359 24.7817 17.1452 24.7965 16.9299 24.8068L16.8867 23.9079L17.3363 24.6875L16.8251 23.9434L17.7147 24.0793C17.6796 24.3096 17.6317 24.5377 17.5711 24.7627C16.8431 27.4673 14.3694 29.3924 11.4687 29.3924H11.4688ZM17.8769 27.9124C17.739 27.4349 18.0144 26.9359 18.4919 26.798C18.9694 26.6601 19.4683 26.9355 19.6062 27.413C20.6285 30.9532 24.5632 33.6304 29.3063 33.8589C29.4496 33.8658 29.5891 33.9069 29.7133 33.9786L29.774 34.0137C29.8908 34.0812 29.9909 34.174 30.0669 34.2854C30.143 34.3967 30.193 34.5237 30.2134 34.6571C30.5423 36.8102 32.404 38.4011 34.6319 38.4011C35.4354 38.4011 36.2062 38.1894 36.8841 37.7932C37.3133 37.5424 37.8645 37.687 38.1153 38.1162C38.3661 38.5453 38.2214 39.0965 37.7923 39.3473C36.8407 39.9034 35.7568 40.2011 34.6319 40.2011C31.7557 40.2011 29.3023 38.2931 28.578 35.6124C23.3944 35.1437 19.0792 32.0759 17.8769 27.9124L17.8769 27.9124Z" fill="#57836B"/>
<path id="Vector_2" d="M37.8891 37.7542C38.3139 38.0124 38.449 38.566 38.1908 38.9907C37.9326 39.4155 37.379 39.5506 36.9543 39.2924C35.0959 38.1631 33.9364 36.1467 33.9364 33.9311C33.9364 33.7589 33.9858 33.5903 34.0787 33.4453C34.1717 33.3004 34.3042 33.1851 34.4607 33.1132L34.638 33.0318L34.6876 33.0108C38.2922 31.6094 40.5883 28.7405 40.5883 25.5957C40.5883 21.4974 36.6918 17.9677 31.4442 17.3969C30.9501 17.3431 30.593 16.899 30.6468 16.4048C30.7005 15.9106 31.1447 15.5537 31.6389 15.6074C37.731 16.2701 42.3883 20.4891 42.3883 25.5957C42.3883 29.4061 39.782 32.794 35.7739 34.5112C35.9489 35.8579 36.727 37.0479 37.8891 37.7542Z" fill="#57836B"/>
</g>
</svg>
