<svg width="18" height="18" viewBox="0 0 18 18" fill="none" xmlns="http://www.w3.org/2000/svg">
    <g id="checkmark-double-svgrepo-com 1" clip-path="url(#clip0_15_95)">
    <g id="Clip path group">
    <mask id="mask0_15_95" style="mask-type:luminance" maskUnits="userSpaceOnUse" x="0" y="0" width="18" height="18">
    <g id="clip0_949_23339">
    <path id="Vector" d="M18 0H0V18H18V0Z" fill="white"/>
    </g>
    </mask>
    <g mask="url(#mask0_15_95)">
    <g id="Group">
    <path id="Vector_2" d="M13.1866 5.21783C13.4794 4.92493 13.4794 4.45006 13.1866 4.15717C12.8937 3.86428 12.4188 3.86428 12.1259 4.15717L4.15909 12.124L1.28033 9.24525C0.987435 8.95237 0.512563 8.95237 0.21967 9.24525C-0.0732233 9.53812 -0.0732232 10.013 0.21967 10.3059L3.62876 13.7149C3.92165 14.0079 4.39653 14.0079 4.68942 13.7149L13.1866 5.21783Z" fill="white"/>
    <path id="Vector_3" d="M17.6866 5.21783C17.9794 4.92493 17.9794 4.45006 17.6866 4.15717C17.3936 3.86428 16.9188 3.86428 16.6258 4.15717L8.12872 12.6543C7.83585 12.9472 7.83585 13.4221 8.12872 13.7149C8.4216 14.0079 8.8965 14.0079 9.18937 13.7149L17.6866 5.21783Z" fill="white"/>
    </g>
    </g>
    </g>
    </g>
    <defs>
    <clipPath id="clip0_15_95">
    <rect width="18" height="18" fill="white"/>
    </clipPath>
    </defs>
</svg>
