<svg width="76" height="76" viewBox="0 0 76 76" fill="none" xmlns="http://www.w3.org/2000/svg">
<g id="fence 1" clip-path="url(#clip0_161_208)">
<g id="Group">
<path id="Vector" d="M74.0049 30.159C74.2963 30.159 74.5757 30.0433 74.7817 29.8372C74.9878 29.6312 75.1035 29.3518 75.1035 29.0604C75.1035 28.769 74.9878 28.4896 74.7817 28.2835C74.5757 28.0775 74.2963 27.9618 74.0049 27.9618H70.4066V25.4622H74.0049C74.2963 25.4622 74.5757 25.3464 74.7817 25.1404C74.9878 24.9343 75.1035 24.6549 75.1035 24.3635C75.1035 24.0721 74.9878 23.7927 74.7817 23.5867C74.5757 23.3806 74.2963 23.2649 74.0049 23.2649H70.4066V18.7322C71.1257 18.1 71.5809 17.1744 71.5809 16.1438C71.5809 14.2431 70.0344 12.6968 68.1338 12.6968H65.7854C63.8846 12.6968 62.3383 14.2432 62.3383 16.1438C62.3383 17.1744 62.7934 18.1 63.5125 18.7322V23.2649H41.0506V18.7322C41.7697 18.1 42.2248 17.1744 42.2248 16.1438C42.2248 14.2431 40.6784 12.6968 38.7777 12.6968H36.4293C34.5285 12.6968 32.9822 14.2432 32.9822 16.1438C32.9822 17.1744 33.4374 18.1 34.1564 18.7322V23.2649H11.6947V18.7322C12.4138 18.1 12.8689 17.1744 12.8689 16.1438C12.8689 14.2431 11.3225 12.6968 9.42183 12.6968H7.07339C5.17261 12.6968 3.62632 14.2432 3.62632 16.1438C3.62632 17.1744 4.08145 18.1 4.80054 18.7322V23.2649H1.20215C0.910773 23.2649 0.631331 23.3806 0.425298 23.5867C0.219264 23.7927 0.103516 24.0721 0.103516 24.3635C0.103516 24.6549 0.219264 24.9343 0.425298 25.1404C0.631331 25.3464 0.910773 25.4622 1.20215 25.4622H4.80039V27.9618H1.20215C0.910773 27.9618 0.631331 28.0775 0.425298 28.2835C0.219264 28.4896 0.103516 28.769 0.103516 29.0604C0.103516 29.3518 0.219264 29.6312 0.425298 29.8372C0.631331 30.0433 0.910773 30.159 1.20215 30.159H4.80039V62.0147H1.20215C0.910773 62.0147 0.631331 62.1304 0.425298 62.3365C0.219264 62.5425 0.103516 62.822 0.103516 63.1133C0.103516 63.4047 0.219264 63.6841 0.425298 63.8902C0.631331 64.0962 0.910773 64.212 1.20215 64.212H74.0049C74.2963 64.212 74.5757 64.0962 74.7817 63.8902C74.9878 63.6841 75.1035 63.4047 75.1035 63.1133C75.1035 62.822 74.9878 62.5425 74.7817 62.3365C74.5757 62.1304 74.2963 62.0147 74.0049 62.0147H70.4066V30.159H74.0049ZM9.49741 62.0147H6.99766V19.5892C7.02285 19.5897 7.0479 19.5911 7.07324 19.5911H9.42168C9.44702 19.5911 9.47207 19.5897 9.49741 19.5892V62.0147ZM9.42183 17.3935H7.07339C6.38418 17.3935 5.82358 16.8328 5.82358 16.1437C5.82358 15.4546 6.38418 14.8939 7.07339 14.8939H9.42183C10.111 14.8939 10.6716 15.4546 10.6716 16.1437C10.6716 16.8328 10.1109 17.3935 9.42183 17.3935ZM25.9368 62.0147H19.9144V58.4165C19.9144 58.1251 19.7986 57.8456 19.5926 57.6396C19.3865 57.4336 19.1071 57.3178 18.8157 57.3178C18.5243 57.3178 18.2449 57.4336 18.0389 57.6396C17.8328 57.8456 17.7171 58.1251 17.7171 58.4165V62.0147H11.6947V30.159H17.7171V53.7191C17.7171 54.0105 17.8328 54.29 18.0389 54.496C18.2449 54.702 18.5243 54.8178 18.8157 54.8178C19.1071 54.8178 19.3865 54.702 19.5926 54.496C19.7986 54.29 19.9144 54.0105 19.9144 53.7191V30.159H25.9368V62.0147ZM34.1564 62.0147H28.134V30.159H34.1564V62.0147ZM34.1564 27.9616H11.6947V25.462H34.1564V27.9616ZM35.1795 16.1437C35.1795 15.4546 35.7401 14.8939 36.4293 14.8939H38.7777C39.4669 14.8939 40.0275 15.4546 40.0275 16.1437C40.0275 16.8328 39.4668 17.3935 38.7777 17.3935H36.4293C35.7401 17.3935 35.1795 16.8328 35.1795 16.1437ZM47.073 62.0147H41.0506V36.1061C41.0506 35.8148 40.9348 35.5353 40.7288 35.3293C40.5228 35.1233 40.2433 35.0075 39.952 35.0075C39.6606 35.0075 39.3811 35.1233 39.1751 35.3293C38.9691 35.5353 38.8533 35.8148 38.8533 36.1061V62.0147H36.3537V19.5892C36.3789 19.5897 36.404 19.5911 36.4293 19.5911H38.7777C38.8031 19.5911 38.8281 19.5897 38.8533 19.5892V31.409C38.8533 31.7004 38.9691 31.9798 39.1751 32.1858C39.3811 32.3919 39.6606 32.5076 39.952 32.5076C40.2433 32.5076 40.5228 32.3919 40.7288 32.1858C40.9348 31.9798 41.0506 31.7004 41.0506 31.409V30.1592H47.073V62.0147ZM63.5124 62.0147H57.4899V49.0223C57.4899 48.7309 57.3742 48.4514 57.1682 48.2454C56.9621 48.0394 56.6827 47.9236 56.3913 47.9236C56.0999 47.9236 55.8205 48.0394 55.6145 48.2454C55.4084 48.4514 55.2927 48.7309 55.2927 49.0223V62.0147H49.2703V30.159H55.2927V44.3251C55.2927 44.6165 55.4084 44.8959 55.6145 45.1019C55.8205 45.308 56.0999 45.4237 56.3913 45.4237C56.6827 45.4237 56.9621 45.308 57.1682 45.1019C57.3742 44.8959 57.4899 44.6165 57.4899 44.3251V30.159H63.5124V62.0147ZM63.5124 27.9616H41.0506V25.462H63.5124V27.9616ZM68.2092 62.0147H65.7096V19.5892C65.7348 19.5897 65.7599 19.5911 65.7852 19.5911H68.1336C68.159 19.5911 68.184 19.5897 68.2092 19.5892V62.0147ZM68.1336 17.3935H65.7852C65.096 17.3935 64.5354 16.8328 64.5354 16.1437C64.5354 15.4546 65.0961 14.8939 65.7852 14.8939H68.1336C68.8229 14.8939 69.3834 15.4546 69.3834 16.1437C69.3834 16.8328 68.8227 17.3935 68.1336 17.3935Z" fill="#57836B"/>
</g>
</g>
<defs>
<clipPath id="clip0_161_208">
<rect width="75" height="75" fill="white" transform="translate(0.103516 0.954346)"/>
</clipPath>
</defs>
</svg>
