<svg width="23" height="12" viewBox="0 0 23 12" fill="none" xmlns="http://www.w3.org/2000/svg">
<g id="Group">
<g id="Group_2">
<path id="Vector" d="M22.5 2C22.5 3.1 21.6 4 20.5 4C20.32 4 20.15 3.98 19.99 3.93L16.43 7.48C16.48 7.64 16.5 7.82 16.5 8C16.5 9.1 15.6 10 14.5 10C13.4 10 12.5 9.1 12.5 8C12.5 7.82 12.52 7.64 12.57 7.48L10.02 4.93C9.86 4.98 9.68 5 9.5 5C9.32 5 9.14 4.98 8.98 4.93L4.43 9.49C4.48 9.65 4.5 9.82 4.5 10C4.5 11.1 3.6 12 2.5 12C1.4 12 0.5 11.1 0.5 10C0.5 8.9 1.4 8 2.5 8C2.68 8 2.85 8.02 3.01 8.07L7.57 3.52C7.52 3.36 7.5 3.18 7.5 3C7.5 1.9 8.4 1 9.5 1C10.6 1 11.5 1.9 11.5 3C11.5 3.18 11.48 3.36 11.43 3.52L13.98 6.07C14.14 6.02 14.32 6 14.5 6C14.68 6 14.86 6.02 15.02 6.07L18.57 2.51C18.52 2.35 18.5 2.18 18.5 2C18.5 0.9 19.4 0 20.5 0C21.6 0 22.5 0.9 22.5 2ZM22.5 2C22.5 3.1 21.6 4 20.5 4C20.32 4 20.15 3.98 19.99 3.93L16.43 7.48C16.48 7.64 16.5 7.82 16.5 8C16.5 9.1 15.6 10 14.5 10C13.4 10 12.5 9.1 12.5 8C12.5 7.82 12.52 7.64 12.57 7.48L10.02 4.93C9.86 4.98 9.68 5 9.5 5C9.32 5 9.14 4.98 8.98 4.93L4.43 9.49C4.48 9.65 4.5 9.82 4.5 10C4.5 11.1 3.6 12 2.5 12C1.4 12 0.5 11.1 0.5 10C0.5 8.9 1.4 8 2.5 8C2.68 8 2.85 8.02 3.01 8.07L7.57 3.52C7.52 3.36 7.5 3.18 7.5 3C7.5 1.9 8.4 1 9.5 1C10.6 1 11.5 1.9 11.5 3C11.5 3.18 11.48 3.36 11.43 3.52L13.98 6.07C14.14 6.02 14.32 6 14.5 6C14.68 6 14.86 6.02 15.02 6.07L18.57 2.51C18.52 2.35 18.5 2.18 18.5 2C18.5 0.9 19.4 0 20.5 0C21.6 0 22.5 0.9 22.5 2Z" fill="#57836B"/>
</g>
</g>
</svg>
