<svg width="40" height="37" viewBox="0 0 40 37" fill="none" xmlns="http://www.w3.org/2000/svg">
<g id="Group">
<path id="Vector" d="M20 14.875C23.8598 14.875 27 11.7348 27 7.875C27 4.01518 23.8598 0.875 20 0.875C16.1402 0.875 13 4.01518 13 7.875C13 11.7348 16.1402 14.875 20 14.875ZM20 3.28879C22.5289 3.28879 24.5862 5.34615 24.5862 7.875C24.5862 10.4039 22.5289 12.4612 20 12.4612C17.4711 12.4612 15.4138 10.4039 15.4138 7.875C15.4138 5.34615 17.4711 3.28879 20 3.28879Z" fill="#016141"/>
<path id="Vector_2" d="M33.5 14.125C35.9813 14.125 38 12.1063 38 9.625C38 7.1437 35.9813 5.125 33.5 5.125C31.0187 5.125 29 7.1437 29 9.625C29 12.1063 31.0187 14.125 33.5 14.125ZM33.5 7.57955C34.6279 7.57955 35.5455 8.49714 35.5455 9.625C35.5455 10.7529 34.6279 11.6705 33.5 11.6705C32.3721 11.6705 31.4545 10.7529 31.4545 9.625C31.4545 8.49714 32.3721 7.57955 33.5 7.57955Z" fill="#016141"/>
<path id="Vector_3" d="M34.6952 17.125H32.8827C30.7469 17.125 28.9031 18.4144 28.063 20.2665C26.3332 18.337 23.8486 17.125 21.0921 17.125H18.9079C16.1514 17.125 13.6668 18.337 11.937 20.2665C11.0968 18.4144 9.25303 17.125 7.11717 17.125H5.30468C2.37968 17.125 0 19.542 0 22.5129V31.2313C0 32.5211 1.03078 33.5704 2.29781 33.5704H9.46397C9.58412 34.9994 10.7601 36.125 12.1892 36.125H27.8108C29.2399 36.125 30.4158 34.9994 30.536 33.5704H37.6203C38.9325 33.5704 40 32.4839 40 31.1483V22.5129C39.9999 19.542 37.6202 17.125 34.6952 17.125ZM2.34375 22.5129C2.34375 20.8626 3.67202 19.52 5.30468 19.52H7.11717C8.74983 19.52 10.0781 20.8626 10.0781 22.5129V23.3328C9.29006 25.4295 9.45311 26.6861 9.45311 31.1754H2.34375V22.5129ZM28.2031 33.3292C28.2031 33.5503 28.0271 33.73 27.8108 33.73H12.1891C11.9728 33.73 11.7969 33.5502 11.7969 33.3292V26.7864C11.7969 22.7797 14.9868 19.52 18.9079 19.52H21.092C25.0131 19.52 28.2031 22.7797 28.2031 26.7863V33.3292ZM37.6562 31.1483C37.6562 31.1896 38.0931 31.1754 30.5468 31.1754C30.5468 26.6529 30.7086 25.4261 29.9218 23.3328V22.5129C29.9218 20.8626 31.2501 19.52 32.8827 19.52H34.6952C36.3279 19.52 37.6562 20.8626 37.6562 22.5129V31.1483Z" fill="#016141"/>
<path id="Vector_4" d="M6.5 14.5C8.9813 14.5 11 12.4813 11 10C11 7.5187 8.9813 5.5 6.5 5.5C4.0187 5.5 2 7.5187 2 10C2 12.4813 4.0187 14.5 6.5 14.5ZM6.5 7.95455C7.62786 7.95455 8.54545 8.87214 8.54545 10C8.54545 11.1279 7.62786 12.0455 6.5 12.0455C5.37214 12.0455 4.45455 11.1279 4.45455 10C4.45455 8.87214 5.37214 7.95455 6.5 7.95455Z" fill="#016141"/>
</g>
</svg>
