<svg width="76" height="76" viewBox="0 0 76 76" fill="none" xmlns="http://www.w3.org/2000/svg">
<g id="house 1" clip-path="url(#clip0_161_200)">
<g id="Group">
<path id="Vector" d="M34.8805 42.4427C34.5891 42.4427 34.3097 42.5584 34.1036 42.7645C33.8976 42.9705 33.7818 43.2499 33.7818 43.5413V45.7626C33.7818 46.054 33.8976 46.3334 34.1036 46.5394C34.3097 46.7455 34.5891 46.8612 34.8805 46.8612C35.1718 46.8612 35.4513 46.7455 35.6573 46.5394C35.8634 46.3334 35.9791 46.054 35.9791 45.7626V43.5413C35.9791 43.397 35.9507 43.2542 35.8955 43.1209C35.8403 42.9876 35.7593 42.8665 35.6573 42.7645C35.5553 42.6624 35.4342 42.5815 35.3009 42.5263C35.1676 42.4711 35.0247 42.4427 34.8805 42.4427ZM18.9274 26.0856H14.6519C13.6426 26.0856 12.8208 26.9067 12.8208 27.9167V38.9454C12.8208 39.9552 13.6426 40.7764 14.6519 40.7764H18.9274C19.9367 40.7764 20.7585 39.9552 20.7585 38.9454V27.9166C20.7585 26.9067 19.9367 26.0855 18.9274 26.0855V26.0856ZM18.5612 38.5791H15.0181V28.2828H18.5612V38.5791ZM60.9685 26.0856H56.6929C55.6836 26.0856 54.8618 26.9067 54.8618 27.9167V38.9454C54.8618 39.9552 55.6836 40.7764 56.6929 40.7764H60.9685C61.9777 40.7764 62.7995 39.9552 62.7995 38.9454V27.9166C62.7995 26.9067 61.9777 26.0855 60.9685 26.0855V26.0856ZM60.6022 38.5791H57.0591V28.2828H60.6022V38.5791ZM38.2892 17.2434H37.3312C34.9543 17.2434 33.0208 19.1773 33.0208 21.5543V25.7303C33.0208 26.6017 33.7298 27.3107 34.6013 27.3107H41.019C41.8906 27.3107 42.5996 26.6017 42.5996 25.7301V21.5544C42.5996 19.1774 40.666 17.2434 38.2892 17.2434ZM35.2174 25.1134V21.5543C35.2174 20.3887 36.1656 19.4405 37.3312 19.4405H38.2892C39.4541 19.4405 40.4022 20.3887 40.4022 21.5543V25.1134H35.2174Z" fill="#57836B"/>
<path id="Vector_2" d="M74.2114 53.4152H69.0473V20.9884H73.479C74.0746 20.9884 74.5845 20.7081 74.8437 20.2383C75.1023 19.7684 75.0669 19.1871 74.7487 18.6835L65.7616 4.46558C65.348 3.81035 64.4846 3.33486 63.7098 3.33486H40.5742L39.1233 1.58423C38.7914 1.18389 38.3125 0.954346 37.8101 0.954346C37.307 0.954346 36.8286 1.18374 36.4968 1.58423L35.0458 3.33472H11.9102C11.1348 3.33472 10.272 3.8102 9.85776 4.46543L0.871387 18.6833C0.553223 19.1875 0.517773 19.7682 0.776465 20.2381C1.03574 20.7079 1.54551 20.9881 2.14111 20.9881H6.57285V44.4246C5.46792 45.4815 4.77783 46.9676 4.77783 48.6136C4.77783 48.9154 4.80244 49.2111 4.84712 49.5006H4.38071C3.37144 49.5006 2.54966 50.3224 2.54966 51.3316V53.4151H1.40869C1.11732 53.4151 0.837874 53.5308 0.631841 53.7369C0.425807 53.9429 0.310059 54.2223 0.310059 54.5137C0.310059 54.8051 0.425807 55.0845 0.631841 55.2906C0.837874 55.4966 1.11732 55.6124 1.40869 55.6124H74.2114C74.5028 55.6124 74.7822 55.4966 74.9883 55.2906C75.1943 55.0845 75.3101 54.8051 75.3101 54.5137C75.3101 54.2223 75.1943 53.9429 74.9883 53.7369C74.7822 53.5308 74.5028 53.4151 74.2114 53.4151V53.4152ZM69.7019 14.8115H50.0891L48.6322 13.0537H68.5907L69.7019 14.8115ZM66.0906 9.09858L67.2019 10.8564H46.8102L45.3528 9.09858H66.0906ZM63.6982 5.53198C63.7583 5.54224 63.8699 5.60405 63.9106 5.64917L64.702 6.90132H43.531L42.3963 5.53198H63.6982ZM9.52935 9.09858H16.8628C17.1542 9.09858 17.4336 8.98284 17.6396 8.7768C17.8457 8.57077 17.9614 8.29133 17.9614 7.99995C17.9614 7.70858 17.8457 7.42913 17.6396 7.2231C17.4336 7.01707 17.1542 6.90132 16.8628 6.90132H10.9176L11.7095 5.64873C11.7502 5.60405 11.8618 5.54224 11.9213 5.53198H33.2236L32.0884 6.90132H21.9897C21.6984 6.90132 21.4189 7.01707 21.2129 7.2231C21.0069 7.42913 20.8911 7.70858 20.8911 7.99995C20.8911 8.29133 21.0069 8.57077 21.2129 8.7768C21.4189 8.98284 21.6984 9.09858 21.9897 9.09858H30.2673L28.8098 10.8564H8.41841L9.52935 9.09858ZM7.02944 13.0537H26.9879L25.5304 14.8115H5.91836L7.02944 13.0537ZM3.40278 18.7912L4.52954 17.0087H23.7092L22.2312 18.7912H3.40278ZM24.5932 42.7562C23.7612 42.2818 22.8051 42.0111 21.7974 42.0111C19.8183 42.0111 17.9831 43.0652 16.959 44.7154C16.6819 44.6614 16.4001 44.6344 16.1178 44.6348C15.7076 44.6348 15.3104 44.6925 14.9333 44.7989C13.849 43.5681 12.2651 42.8146 10.5766 42.8146C9.94595 42.8146 9.33877 42.9176 8.77012 43.1046V20.9884H20.4093C20.0104 21.4702 19.9127 22.0548 20.1467 22.5533C20.3813 23.0522 20.8952 23.3505 21.5211 23.3505H24.5932V42.7562ZM11.7707 49.5007H7.08789C7.01356 49.2109 6.97567 48.913 6.9751 48.6138C6.9751 46.6277 8.59097 45.0117 10.5766 45.0117C11.4834 45.0117 12.3417 45.3625 12.9936 45.9514C12.22 46.7416 11.7421 47.822 11.7421 49.0121C11.7421 49.1776 11.7524 49.3405 11.7707 49.5007ZM24.5932 53.4152H4.74707V51.698H24.5934L24.5932 53.4152ZM24.5938 49.5007H13.9967C13.9601 49.344 13.9394 49.1804 13.9394 49.0121C13.9394 47.8099 14.9167 46.8319 16.1178 46.8319C16.4428 46.8319 16.7559 46.9022 17.0482 47.0402C17.1848 47.1049 17.3332 47.1407 17.4842 47.1454C17.6353 47.1501 17.7856 47.1237 17.926 47.0678C18.0663 47.0116 18.1936 46.9272 18.2998 46.8196C18.406 46.7121 18.4889 46.5839 18.5434 46.4429C19.059 45.1062 20.3676 44.2084 21.798 44.2084C22.927 44.2084 23.9513 44.7623 24.5938 45.6218V49.5007ZM23.1273 21.1531L37.8101 3.44297L52.4928 21.1534H50.5554L38.6557 6.80083C38.5526 6.67658 38.4233 6.57656 38.2772 6.50786C38.131 6.43915 37.9715 6.40344 37.8101 6.40327C37.6485 6.40325 37.489 6.43888 37.3428 6.50763C37.1966 6.57638 37.0674 6.67654 36.9644 6.80098L25.0647 21.1531H23.1273ZM42.4621 53.4152H33.158V36.364H42.4621V53.4152ZM66.85 53.4152H51.0268V40.1486C51.0268 39.5421 50.5347 39.05 49.9281 39.05C49.3217 39.05 48.8295 39.5421 48.8295 40.1486V53.4152H44.6594V35.9978C44.6594 34.9885 43.8382 34.1667 42.8283 34.1667H32.7918C31.7819 34.1667 30.9607 34.9885 30.9607 35.9978V53.4152H26.7905V22.5144L37.8101 9.22339L48.8296 22.5146V34.9485C48.8296 35.2399 48.9454 35.5194 49.1514 35.7254C49.3575 35.9314 49.6369 36.0472 49.9283 36.0472C50.2196 36.0472 50.4991 35.9314 50.7051 35.7254C50.9112 35.5194 51.0269 35.2399 51.0269 34.9485V23.3506H54.0984C54.7245 23.3506 55.2383 23.0524 55.4729 22.5535C55.7075 22.0551 55.6091 21.4704 55.2108 20.9886H59.4897C59.7811 20.9886 60.0606 20.8728 60.2666 20.6668C60.4726 20.4608 60.5884 20.1813 60.5884 19.8899C60.5884 19.5986 60.4726 19.3191 60.2666 19.1131C60.0606 18.9071 59.7811 18.7913 59.4897 18.7913H53.389L51.9109 17.0089H71.0906L72.2173 18.7913H64.7632C64.4718 18.7913 64.1924 18.9071 63.9863 19.1131C63.7803 19.3191 63.6646 19.5986 63.6646 19.8899C63.6646 20.1813 63.7803 20.4608 63.9863 20.6668C64.1924 20.8728 64.4718 20.9886 64.7632 20.9886H66.85V53.4152Z" fill="#57836B"/>
</g>
</g>
<defs>
<clipPath id="clip0_161_200">
<rect width="75" height="75" fill="white" transform="translate(0.310059 0.954346)"/>
</clipPath>
</defs>
</svg>
