<svg width="76" height="75" viewBox="0 0 76 75" fill="none" xmlns="http://www.w3.org/2000/svg">
<g id="kitchen-set 1" clip-path="url(#clip0_161_232)">
<g id="Group">
<path id="Vector" d="M53.3155 9.22607C53.0242 9.22607 52.7447 9.34182 52.5387 9.54786C52.3326 9.75389 52.2169 10.0333 52.2169 10.3247V15.3784C52.2169 15.6698 52.3326 15.9492 52.5387 16.1553C52.7447 16.3613 53.0242 16.4771 53.3155 16.4771C53.6069 16.4771 53.8863 16.3613 54.0924 16.1553C54.2984 15.9492 54.4142 15.6698 54.4142 15.3784V10.3247C54.4142 9.71826 53.922 9.22607 53.3155 9.22607ZM62.1737 9.22607C61.8824 9.22607 61.6029 9.34182 61.3969 9.54786C61.1908 9.75389 61.0751 10.0333 61.0751 10.3247V15.3784C61.0751 15.6698 61.1908 15.9492 61.3969 16.1553C61.6029 16.3613 61.8824 16.4771 62.1737 16.4771C62.4651 16.4771 62.7445 16.3613 62.9506 16.1553C63.1566 15.9492 63.2724 15.6698 63.2724 15.3784V10.3247C63.2724 10.0333 63.1566 9.75389 62.9506 9.54786C62.7445 9.34182 62.4651 9.22607 62.1737 9.22607ZM51.8501 45.5337H57.856C58.4624 45.5337 58.9546 45.0415 58.9546 44.4351C58.9546 43.8286 58.4624 43.3364 57.856 43.3364H51.8501C51.5587 43.3364 51.2793 43.4522 51.0732 43.6582C50.8672 43.8642 50.7515 44.1437 50.7515 44.4351C50.7515 44.7264 50.8672 45.0059 51.0732 45.2119C51.2793 45.4179 51.5587 45.5337 51.8501 45.5337ZM57.856 60.6702H51.8501C51.5587 60.6702 51.2793 60.786 51.0732 60.992C50.8672 61.198 50.7515 61.4775 50.7515 61.7688C50.7515 62.3759 51.2429 62.8675 51.8501 62.8675H57.856C58.1473 62.8675 58.4268 62.7517 58.6328 62.5457C58.8388 62.3397 58.9546 62.0602 58.9546 61.7688C58.9546 61.4775 58.8388 61.198 58.6328 60.992C58.4268 60.786 58.1473 60.6702 57.856 60.6702Z" fill="#57836B"/>
<path id="Vector_2" d="M73.6241 34.4442H66.2524C66.1081 34.4442 65.9652 34.4725 65.8319 34.5277C65.6986 34.5829 65.5775 34.6638 65.4754 34.7659C65.3734 34.8679 65.2925 34.989 65.2373 35.1224C65.1821 35.2557 65.1537 35.3986 65.1538 35.5429C65.1538 35.8342 65.2695 36.1137 65.4756 36.3197C65.6816 36.5257 65.961 36.6415 66.2524 36.6415H73.6241C73.6654 36.6415 73.6991 36.6747 73.6991 36.7165V39.3699C73.6991 39.4116 73.6654 39.4453 73.6241 39.4453H3.16875C3.1488 39.4453 3.1297 39.4373 3.11564 39.4231C3.10158 39.409 3.09371 39.3898 3.09375 39.3699V36.7165C3.09375 36.6755 3.12744 36.6416 3.16875 36.6416H61.8579C62.1493 36.6416 62.4287 36.5259 62.6347 36.3199C62.8408 36.1138 62.9565 35.8344 62.9565 35.543C62.9565 34.9358 62.4651 34.4444 61.8579 34.4444H26.5702V32.5921C27.8759 32.5377 28.9206 31.4586 28.9206 30.1396V28.6147C28.9206 28.3234 28.8049 28.0439 28.5989 27.8379C28.3928 27.6319 28.1134 27.5161 27.822 27.5161C27.5306 27.5161 27.2512 27.6319 27.0452 27.8379C26.8391 28.0439 26.7234 28.3234 26.7234 28.6147V30.1396C26.7234 30.2816 26.6084 30.3972 26.4666 30.3972H9.97454C9.90627 30.3971 9.84081 30.3699 9.79253 30.3217C9.74426 30.2734 9.7171 30.2079 9.71702 30.1396V28.6147C9.71702 28.3234 9.60128 28.0439 9.39524 27.8379C9.18921 27.6319 8.90977 27.5161 8.61839 27.5161C8.32702 27.5161 8.04758 27.6319 7.84154 27.8379C7.63551 28.0439 7.51976 28.3234 7.51976 28.6147V30.1396C7.51976 31.4586 8.56522 32.5377 9.87083 32.5921V34.4444H3.16889C1.91601 34.4442 0.896484 35.4635 0.896484 36.7165V39.3699C0.896484 40.6229 1.91601 41.6426 3.16875 41.6426H4.38515V71.7275C4.38515 73.4806 5.81117 74.9065 7.56444 74.9065H69.2284C70.9818 74.9065 72.4077 73.4806 72.4077 71.7274V41.6426H73.6241C74.8767 41.6426 75.8963 40.6231 75.8963 39.3699V36.7165C75.8963 35.4635 74.8768 34.4444 73.6241 34.4444V34.4442ZM12.0682 32.5946H24.3729V34.4445H12.0682V32.5946ZM6.58241 71.7274V41.6426H37.2978V72.7092H7.56444C7.30405 72.7091 7.05436 72.6056 6.87022 72.4215C6.68608 72.2374 6.58257 71.9877 6.58241 71.7274ZM69.2284 72.7092H39.495V58.3619H70.211V71.7274C70.2107 71.9878 70.1071 72.2375 69.9229 72.4216C69.7386 72.6057 69.4888 72.7092 69.2284 72.7092ZM70.2109 56.1646H39.495V41.6426H70.2109V56.1646Z" fill="#57836B"/>
<path id="Vector_3" d="M33.1904 52.2381H11.083C9.96707 52.2381 9.0596 53.1457 9.0596 54.2615V68.4464C9.0596 69.5622 9.96707 70.4697 11.0828 70.4697H33.1905C34.3063 70.4697 35.2138 69.5622 35.2138 68.4464V54.2615C35.2138 53.1457 34.3061 52.2381 33.1904 52.2381ZM33.0165 68.2724H11.2569V54.436H33.0165V68.2724ZM12.6485 50.5142C14.6276 50.5142 16.2373 48.904 16.2373 46.9253C16.2373 44.9466 14.6276 43.3364 12.6485 43.3364C10.6698 43.3364 9.0596 44.9466 9.0596 46.9253C9.0596 48.904 10.6698 50.5142 12.6485 50.5142ZM12.6485 45.5337C13.4157 45.5337 14.0401 46.1579 14.0401 46.9253C14.0401 47.6927 13.4157 48.3169 12.6485 48.3169C11.881 48.3169 11.2569 47.6926 11.2569 46.9253C11.2569 46.158 11.881 45.5337 12.6485 45.5337ZM22.1367 50.5142C24.1154 50.5142 25.7255 48.904 25.7255 46.9253C25.7255 44.9466 24.1154 43.3364 22.1367 43.3364C20.158 43.3364 18.5478 44.9466 18.5478 46.9253C18.5478 48.904 20.158 50.5142 22.1367 50.5142ZM22.1367 45.5337C22.904 45.5337 23.5283 46.1579 23.5283 46.9253C23.5283 47.6927 22.904 48.3169 22.1367 48.3169C21.3694 48.3169 20.7451 47.6926 20.7451 46.9253C20.7451 46.158 21.3694 45.5337 22.1367 45.5337ZM72.8974 0H42.5919C40.9381 0 39.5929 1.34531 39.5929 2.99897V22.5369C39.5929 24.1905 40.9382 25.5363 42.5919 25.5363H72.8974C74.5512 25.5363 75.8963 24.1905 75.8963 22.5369V2.99882C75.8963 1.34546 74.551 0 72.8974 0ZM41.7902 22.5369V2.99882C41.7904 2.78629 41.875 2.58255 42.0253 2.43228C42.1756 2.28201 42.3793 2.19749 42.5919 2.19726H56.6457V23.339H42.5919C42.3792 23.3387 42.1754 23.2541 42.0251 23.1037C41.8748 22.9534 41.7903 22.7495 41.7902 22.5369ZM73.6991 22.5369C73.6989 22.7495 73.6144 22.9534 73.4641 23.1037C73.3138 23.2541 73.11 23.3387 72.8974 23.339H58.843V2.19726H72.8974C73.1099 2.19749 73.3137 2.28203 73.464 2.43233C73.6143 2.58263 73.6988 2.78641 73.6991 2.99897V22.5369ZM3.08686 13.8668H34.6719C35.8798 13.8668 36.8629 12.8843 36.8629 11.6758V9.70794C36.8629 8.50003 35.8804 7.51756 34.6719 7.51756H33.0035C32.6211 5.09149 30.5162 3.23071 27.9846 3.23071H9.77474C7.24349 3.23071 5.13822 5.09149 4.75605 7.51756H3.08686C1.87895 7.51756 0.896484 8.50003 0.896484 9.70794V11.6764C0.896484 12.8843 1.87895 13.8668 3.08686 13.8668ZM10.3813 9.71482C10.9878 9.71482 11.48 9.22264 11.48 8.61619C11.48 8.00975 10.9878 7.51756 10.3813 7.51756H7.00253C7.34808 6.31259 8.46048 5.42797 9.77474 5.42797H27.9846C29.299 5.42797 30.4113 6.31259 30.757 7.51756H14.8457C14.2391 7.51756 13.7471 8.00975 13.7471 8.61619C13.7471 9.22264 14.2391 9.71482 14.8457 9.71482L31.8544 9.70911C31.9296 9.71705 32.0053 9.71705 32.0805 9.70911L34.6656 9.70853L34.6719 11.6695L3.09375 11.6764L3.08686 9.71497L10.3813 9.71482Z" fill="#57836B"/>
</g>
</g>
<defs>
<clipPath id="clip0_161_232">
<rect width="75" height="75" fill="white" transform="translate(0.896484)"/>
</clipPath>
</defs>
</svg>
