<svg width="20" height="20" viewBox="0 0 20 20" fill="none" xmlns="http://www.w3.org/2000/svg">
<g id="location pin ">
<path id="Vector" d="M14.9998 3.73342C13.6737 2.40734 11.8751 1.66235 9.99978 1.66235C8.12441 1.66235 6.32586 2.40734 4.99978 3.73342C3.6737 5.0595 2.92871 6.85806 2.92871 8.73342C2.92871 10.6088 3.6737 12.4073 4.99978 13.7334L9.39145 18.1334C9.46891 18.2115 9.56108 18.2735 9.66263 18.3158C9.76418 18.3581 9.8731 18.3799 9.98311 18.3799C10.0931 18.3799 10.202 18.3581 10.3036 18.3158C10.4051 18.2735 10.4973 18.2115 10.5748 18.1334L14.9998 13.6918C16.3203 12.3712 17.0622 10.5801 17.0622 8.71259C17.0622 6.84504 16.3203 5.05399 14.9998 3.73342ZM13.8081 12.5001L9.99978 16.3251L6.19145 12.5001C5.43907 11.747 4.92684 10.7878 4.71952 9.74366C4.51221 8.69953 4.6191 7.61738 5.0267 6.63399C5.4343 5.6506 6.12429 4.81013 7.00947 4.21882C7.89465 3.62751 8.93527 3.31191 9.99978 3.31191C11.0643 3.31191 12.1049 3.62751 12.9901 4.21882C13.8753 4.81013 14.5653 5.6506 14.9729 6.63399C15.3805 7.61738 15.4874 8.69953 15.28 9.74366C15.0727 10.7878 14.5605 11.747 13.8081 12.5001ZM7.49978 6.17509C6.82704 6.8499 6.44927 7.76389 6.44927 8.71675C6.44927 9.66962 6.82704 10.5836 7.49978 11.2584C7.99958 11.7591 8.6361 12.101 9.32949 12.2413C10.0229 12.3815 10.7422 12.3139 11.3973 12.0469C12.0524 11.7799 12.6141 11.3253 13.0118 10.7403C13.4096 10.1553 13.6257 9.46581 13.6331 8.75842C13.6369 8.28609 13.5459 7.8178 13.3655 7.38124C13.1852 6.94468 12.9191 6.54872 12.5831 6.21675C12.2528 5.8789 11.859 5.6097 11.4243 5.42464C10.9896 5.23958 10.5226 5.14232 10.0501 5.13845C9.57766 5.13457 9.10911 5.22417 8.67142 5.40208C8.23373 5.57999 7.83555 5.8427 7.49978 6.17509ZM11.4081 10.0751C11.0923 10.3957 10.675 10.5967 10.2274 10.6436C9.77982 10.6906 9.32983 10.5806 8.95437 10.3325C8.5789 10.0844 8.30128 9.71362 8.16895 9.28349C8.03663 8.85336 8.05782 8.39062 8.22891 7.97438C8.4 7.55815 8.71036 7.21427 9.10693 7.00153C9.5035 6.7888 9.96166 6.72043 10.4031 6.8081C10.8445 6.89578 11.2417 7.13405 11.5269 7.4822C11.812 7.83034 11.9674 8.26673 11.9664 8.71675C11.9543 9.23115 11.7385 9.71969 11.3664 10.0751H11.4081Z" fill="#f6f4f1"/>
</g>
</svg>
