<svg width="41" height="40" viewBox="0 0 41 40" fill="none" xmlns="http://www.w3.org/2000/svg">
<g id="location pin ">
<path id="Vector" d="M30.6665 7.46672C28.0144 4.81456 24.4173 3.32458 20.6665 3.32458C16.9158 3.32458 13.3187 4.81456 10.6665 7.46672C8.01438 10.1189 6.52441 13.716 6.52441 17.4667C6.52441 21.2174 8.01438 24.8146 10.6665 27.4667L19.4499 36.2667C19.6048 36.4229 19.7892 36.5469 19.9923 36.6315C20.1954 36.7162 20.4132 36.7597 20.6332 36.7597C20.8532 36.7597 21.0711 36.7162 21.2742 36.6315C21.4773 36.5469 21.6616 36.4229 21.8165 36.2667L30.6665 27.3834C33.3076 24.7423 34.7914 21.1601 34.7914 17.4251C34.7914 13.69 33.3076 10.1079 30.6665 7.46672ZM28.2832 25.0001L20.6665 32.6501L13.0499 25.0001C11.5451 23.4939 10.5207 21.5755 10.106 19.4872C9.69141 17.3989 9.9052 15.2346 10.7204 13.2679C11.5356 11.3011 12.9156 9.62014 14.6859 8.43752C16.4563 7.25489 18.5375 6.62369 20.6665 6.62369C22.7956 6.62369 24.8768 7.25489 26.6472 8.43752C28.4175 9.62014 29.7975 11.3011 30.6127 13.2679C31.4279 15.2346 31.6417 17.3989 31.2271 19.4872C30.8124 21.5755 29.788 23.4939 28.2832 25.0001ZM15.6665 12.3501C14.3211 13.6997 13.5655 15.5277 13.5655 17.4334C13.5655 19.3391 14.3211 21.1671 15.6665 22.5167C16.6662 23.518 17.9392 24.2019 19.326 24.4824C20.7127 24.7629 22.1515 24.6277 23.4617 24.0936C24.7719 23.5596 25.8952 22.6505 26.6907 21.4805C27.4862 20.3104 27.9184 18.9315 27.9332 17.5167C27.9407 16.5721 27.7588 15.6355 27.3981 14.7624C27.0374 13.8892 26.5053 13.0973 25.8332 12.4334C25.1727 11.7577 24.385 11.2193 23.5156 10.8492C22.6462 10.479 21.7121 10.2845 20.7672 10.2768C19.8223 10.269 18.8852 10.4482 18.0098 10.804C17.1345 11.1599 16.3381 11.6853 15.6665 12.3501ZM23.4832 20.1501C22.8516 20.7913 22.0169 21.1932 21.1218 21.2871C20.2266 21.3811 19.3267 21.1611 18.5757 20.6649C17.8248 20.1687 17.2695 19.4271 17.0049 18.5669C16.7402 17.7066 16.7826 16.7811 17.1248 15.9486C17.467 15.1162 18.0877 14.4284 18.8809 14.0029C19.674 13.5775 20.5903 13.4407 21.4731 13.6161C22.3559 13.7914 23.1504 14.268 23.7207 14.9643C24.2911 15.6606 24.6018 16.5333 24.5999 17.4334C24.5756 18.4622 24.144 19.4393 23.3999 20.1501H23.4832Z" fill="#f6f4f1"/>
</g>
</svg>
