<svg width="36" height="41" viewBox="0 0 36 41" fill="none" xmlns="http://www.w3.org/2000/svg">
<path id="Vector" d="M31.9812 27.7434C32.7075 27.0987 33.1667 26.1571 33.1667 25.1094C33.1667 24.2098 32.8285 23.388 32.2733 22.7656C32.8286 22.1432 33.1667 21.3215 33.1667 20.4219C33.1667 19.5223 32.8285 18.7005 32.2733 18.0781C32.8286 17.4557 33.1667 16.634 33.1667 15.7344C33.1667 14.2066 32.1913 12.9041 30.8333 12.4203V11.0469C30.8333 5.23133 26.123 0.5 20.3333 0.5H15.6667C9.87697 0.5 5.16667 5.23133 5.16667 11.0469V12.4203C3.80874 12.9041 2.83333 14.2066 2.83333 15.7344C2.83333 16.634 3.17143 17.4557 3.72669 18.0781C3.17143 18.7005 2.83333 19.5223 2.83333 20.4219C2.83333 21.3215 3.17143 22.1432 3.72669 22.7656C3.17143 23.388 2.83333 24.2098 2.83333 25.1094C2.83333 26.1571 3.29253 27.0987 4.01882 27.7434C1.89409 29.2259 0.5 31.6945 0.5 34.4844V39.3281C0.5 39.9753 1.02236 40.5 1.66667 40.5H34.3333C34.9776 40.5 35.5 39.9753 35.5 39.3281V34.4844C35.5 31.6945 34.106 29.2259 31.9812 27.7434ZM6.33333 26.2812C5.69003 26.2812 5.16667 25.7555 5.16667 25.1094C5.16667 24.4632 5.69003 23.9375 6.33333 23.9375C6.97764 23.9375 7.5 23.4128 7.5 22.7656C7.5 22.1184 6.97764 21.5938 6.33333 21.5938C5.69003 21.5938 5.16667 21.068 5.16667 20.4219C5.16667 19.7757 5.69003 19.25 6.33333 19.25C6.97764 19.25 7.5 18.7253 7.5 18.0781C7.5 17.4309 6.97764 16.9062 6.33333 16.9062C5.69003 16.9062 5.16667 16.3805 5.16667 15.7344C5.16667 15.0882 5.69003 14.5625 6.33333 14.5625C6.97764 14.5625 7.5 14.0378 7.5 13.3906V11.0469C7.5 6.52367 11.1636 2.84375 15.6667 2.84375H20.3333C24.8364 2.84375 28.5 6.52367 28.5 11.0469V13.3906C28.5 14.0378 29.0224 14.5625 29.6667 14.5625C30.31 14.5625 30.8333 15.0882 30.8333 15.7344C30.8333 16.3805 30.31 16.9062 29.6667 16.9062C29.0224 16.9062 28.5 17.4309 28.5 18.0781C28.5 18.7253 29.0224 19.25 29.6667 19.25C30.31 19.25 30.8333 19.7757 30.8333 20.4219C30.8333 21.068 30.31 21.5938 29.6667 21.5938C29.0224 21.5938 28.5 22.1184 28.5 22.7656C28.5 23.4128 29.0224 23.9375 29.6667 23.9375C30.31 23.9375 30.8333 24.4632 30.8333 25.1094C30.8333 25.7555 30.31 26.2812 29.6667 26.2812H23.8333V23.8128C25.2758 22.3327 26.1667 20.3081 26.1667 18.0781V13.3906C26.1667 10.1598 23.5498 7.53125 20.3333 7.53125C19.69 7.53125 19.1667 7.00555 19.1667 6.35938C19.1667 5.71219 18.6443 5.1875 18 5.1875C17.3557 5.1875 16.8333 5.71219 16.8333 6.35938C16.8333 7.00555 16.31 7.53125 15.6667 7.53125C12.4502 7.53125 9.83333 10.1598 9.83333 13.3906V18.0781C9.83333 20.308 10.7242 22.3327 12.1667 23.8128V26.2812H6.33333ZM18 35.6562C17.3557 35.6562 16.8333 36.1809 16.8333 36.8281V38.1562H12.6626L15.2327 31.0181L17.1751 32.9692C17.4028 33.1981 17.7014 33.3125 18 33.3125C18.2986 33.3125 18.5972 33.1981 18.8249 32.9692L20.7674 31.018L23.3375 38.1562H19.1667V36.8281C19.1667 36.1809 18.6443 35.6562 18 35.6562ZM18 8.97695C18.6197 9.53492 19.4376 9.875 20.3333 9.875C22.2632 9.875 23.8333 11.4521 23.8333 13.3906V18.0781C23.8333 21.309 21.2165 23.9375 18 23.9375C14.7835 23.9375 12.1667 21.309 12.1667 18.0781V13.3906C12.1667 11.4521 13.7368 9.875 15.6667 9.875C16.5624 9.875 17.3803 9.53484 18 8.97695ZM21.5 26.9677L18 30.4834L14.5 26.9677V25.4887C15.5614 25.9965 16.7482 26.2812 18 26.2812C19.2518 26.2812 20.4386 25.9965 21.5 25.4887V26.9677ZM2.83333 34.4844C2.83333 31.2535 5.45017 28.625 8.66667 28.625H12.8501L13.4104 29.1878L10.1813 38.1562H2.83333V34.4844ZM33.1667 38.1562H25.8187L22.5897 29.1878L23.15 28.625H27.3333C30.5498 28.625 33.1667 31.2535 33.1667 34.4844V38.1562Z" fill="#016141"/>
</svg>
