<svg width="76" height="76" viewBox="0 0 76 76" fill="none" xmlns="http://www.w3.org/2000/svg">
<g id="pressure-washer 1">
<g id="Group">
<path id="Vector" d="M17.5137 50.3536V61.7794C17.5137 62.0513 17.6217 62.3122 17.814 62.5045C18.0063 62.6968 18.2671 62.8048 18.5391 62.8048H38.4609C38.7329 62.8048 38.9937 62.6968 39.186 62.5045C39.3783 62.3122 39.4863 62.0513 39.4863 61.7794V50.3536C39.4864 50.2189 39.4599 50.0856 39.4084 49.9611C39.3569 49.8367 39.2814 49.7236 39.1862 49.6284C39.0909 49.5331 38.9779 49.4576 38.8534 49.4061C38.729 49.3546 38.5956 49.3281 38.4609 49.3282H18.5391C18.4044 49.3281 18.271 49.3546 18.1466 49.4061C18.0221 49.4576 17.9091 49.5331 17.8138 49.6284C17.7186 49.7236 17.6431 49.8367 17.5916 49.9611C17.5401 50.0856 17.5136 50.2189 17.5137 50.3536ZM19.5645 51.379H37.4355V60.754H19.5645V51.379ZM21.4687 23.4644C21.1968 23.4644 20.936 23.5724 20.7437 23.7647C20.5514 23.957 20.4434 24.2178 20.4434 24.4897C20.4434 24.7617 20.5514 25.0225 20.7437 25.2148C20.936 25.4071 21.1968 25.5151 21.4687 25.5151H35.5312C35.8032 25.5151 36.064 25.4071 36.2563 25.2148C36.4486 25.0225 36.5566 24.7617 36.5566 24.4897C36.5566 24.2178 36.4486 23.957 36.2563 23.7647C36.064 23.5724 35.8032 23.4644 35.5312 23.4644H21.4687ZM21.4687 30.1048H35.5312C35.8032 30.1048 36.064 29.9968 36.2563 29.8045C36.4486 29.6122 36.5566 29.3513 36.5566 29.0794C36.5566 28.8074 36.4486 28.5466 36.2563 28.3543C36.064 28.162 35.8032 28.054 35.5312 28.054H21.4687C21.1968 28.054 20.936 28.162 20.7437 28.3543C20.5514 28.5466 20.4434 28.8074 20.4434 29.0794C20.4434 29.3513 20.5514 29.6122 20.7437 29.8045C20.936 29.9968 21.1968 30.1048 21.4687 30.1048ZM21.4687 34.6944H35.5312C35.6659 34.6944 35.7992 34.6679 35.9236 34.6164C36.0481 34.5649 36.1611 34.4893 36.2563 34.3941C36.3515 34.2989 36.4271 34.1859 36.4786 34.0614C36.5301 33.937 36.5566 33.8037 36.5566 33.669C36.5566 33.5344 36.5301 33.401 36.4786 33.2766C36.4271 33.1522 36.3515 33.0392 36.2563 32.944C36.1611 32.8488 36.0481 32.7732 35.9236 32.7217C35.7992 32.6702 35.6659 32.6437 35.5312 32.6437H21.4687C21.1968 32.6437 20.936 32.7517 20.7437 32.944C20.5514 33.1363 20.4434 33.3971 20.4434 33.669C20.4434 33.941 20.5514 34.2018 20.7437 34.3941C20.936 34.5864 21.1968 34.6944 21.4687 34.6944Z" fill="#57836B"/>
<path id="Vector_2" d="M71.98 15.0555C71.8431 14.9613 71.6853 14.9018 71.5203 14.882C71.3553 14.8622 71.1879 14.8827 71.0326 14.9418L66.0246 16.852H63.7775C62.4205 13.4612 58.9652 8.25396 50.3502 6.61509C45.4382 5.65871 40.3683 5.89684 35.5675 7.30942V4.76294C35.5674 4.49114 35.4594 4.2305 35.2672 4.03826C35.0751 3.84601 34.8145 3.73786 34.5427 3.73755H22.4572C22.1853 3.7377 21.9246 3.84579 21.7323 4.03805C21.54 4.23031 21.4319 4.49104 21.4318 4.76294V14.1028H19.7912C17.7246 14.1004 15.7364 14.8932 14.2384 16.3168C12.7405 17.7405 11.8477 19.6859 11.7451 21.7499L10.1349 53.1754C9.45535 52.697 8.65738 52.4146 7.82817 52.3589C6.99896 52.3033 6.1704 52.4766 5.43301 52.8599C4.69562 53.2432 4.07776 53.8219 3.64692 54.5325C3.21607 55.2432 2.98883 56.0586 2.98999 56.8897V68.6301C2.98924 69.5256 3.25349 70.4014 3.74946 71.147C4.24544 71.8926 4.95095 72.4748 5.77716 72.8203C6.60337 73.1657 7.51332 73.2589 8.39242 73.0882C9.27152 72.9175 10.0805 72.4905 10.7173 71.861C11.5622 72.6958 12.7007 73.1662 13.8884 73.1711H43.1091C44.2974 73.166 45.4364 72.6953 46.2814 71.8598C46.9182 72.4895 47.7271 72.9167 48.6061 73.0875C49.4852 73.2584 50.3952 73.1653 51.2215 72.8199C52.0478 72.4746 52.7534 71.8925 53.2495 71.1469C53.7456 70.4014 54.01 69.5257 54.0093 68.6301V56.8897C54.0105 56.0586 53.7832 55.2431 53.3522 54.5324C52.9213 53.8218 52.3034 53.2432 51.5659 52.8599C50.8284 52.4766 49.9998 52.3034 49.1706 52.3591C48.3413 52.4149 47.5433 52.6975 46.8638 53.176L45.2584 21.7493C45.1527 19.6858 44.2585 17.7417 42.7605 16.3186C41.2624 14.8956 39.275 14.1023 37.2087 14.1028H35.5681V9.48032C40.2215 8.0002 45.1712 7.70792 49.9664 8.63013C57.0082 9.97017 60.1494 13.92 61.5375 16.8526H60.9404C60.6685 16.8527 60.4078 16.9608 60.2155 17.1531C60.0232 17.3454 59.9151 17.6061 59.915 17.878V29.6653C59.9155 29.9113 60.0046 30.1489 60.166 30.3345C60.3275 30.5201 60.5504 30.6414 60.7939 30.676V62.7854C60.5574 62.8187 60.3401 62.9337 60.1795 63.1105C60.019 63.2873 59.9254 63.5148 59.915 63.7534L59.5634 72.1012C59.5577 72.2393 59.5799 72.3772 59.6288 72.5065C59.6776 72.6358 59.7521 72.7539 59.8478 72.8537C59.9435 72.9534 60.0583 73.0329 60.1855 73.0871C60.3126 73.1414 60.4494 73.1693 60.5877 73.1694H66.5642C66.7024 73.1695 66.8392 73.1417 66.9663 73.0876C67.0935 73.0335 67.2084 72.9543 67.3042 72.8547C67.3999 72.7551 67.4746 72.6372 67.5236 72.508C67.5727 72.3788 67.5951 72.2411 67.5896 72.103L67.238 63.7551C67.2276 63.5165 67.1341 63.2891 66.9735 63.1123C66.813 62.9355 66.5956 62.8205 66.3591 62.7872V30.6778C66.6031 30.6433 66.8264 30.5219 66.9879 30.3358C67.1494 30.1498 67.2382 29.9116 67.238 29.6653V21.8448L71.5406 21.2366C71.7847 21.2013 72.008 21.0793 72.1694 20.8928C72.3308 20.7063 72.4196 20.4678 72.4195 20.2211V15.8999C72.4199 15.7341 72.3801 15.5707 72.3036 15.4236C72.2271 15.2766 72.116 15.1503 71.98 15.0555ZM23.4826 5.78833H33.5168V8.04712C30.0796 9.47974 27.6398 11.5973 26.5289 14.1028H23.482L23.4826 5.78833ZM7.53101 71.1204C6.8708 71.1196 6.23785 70.857 5.77101 70.3901C5.30416 69.9233 5.04155 69.2903 5.04078 68.6301V56.8897C5.04078 56.2292 5.30314 55.5958 5.77015 55.1288C6.23716 54.6618 6.87056 54.3995 7.53101 54.3995C8.19146 54.3995 8.82486 54.6618 9.29187 55.1288C9.75888 55.5958 10.0212 56.2292 10.0212 56.8897V68.6301C10.0205 69.2903 9.75786 69.9233 9.29102 70.3901C8.82417 70.857 8.19122 71.1196 7.53101 71.1204ZM49.4683 54.3995C50.1285 54.4002 50.7615 54.6628 51.2283 55.1297C51.6952 55.5965 51.9578 56.2295 51.9585 56.8897V68.6301C51.9585 69.2906 51.6962 69.924 51.2292 70.391C50.7622 70.858 50.1288 71.1204 49.4683 71.1204C48.8079 71.1204 48.1745 70.858 47.7075 70.391C47.2404 69.924 46.9781 69.2906 46.9781 68.6301V56.8897C46.9789 56.2295 47.2415 55.5965 47.7083 55.1297C48.1752 54.6628 48.8081 54.4002 49.4683 54.3995ZM43.2099 21.8541L44.9724 56.2961C44.9452 56.4929 44.9307 56.6911 44.9291 56.8897V68.6301C44.9297 69.1101 45.0066 69.587 45.157 70.0428C44.9285 70.3745 44.623 70.6459 44.2666 70.8336C43.9103 71.0212 43.5137 71.1197 43.1109 71.1204H13.8884C13.486 71.1193 13.0899 71.0208 12.7338 70.8333C12.3778 70.6457 12.0725 70.3747 11.8441 70.0434C11.9945 69.5874 12.0714 69.1103 12.072 68.6301V56.8897C12.0705 56.6903 12.0558 56.4913 12.0281 56.2938L13.7929 21.853C13.8696 20.3149 14.535 18.8653 15.6512 17.8043C16.7673 16.7433 18.2488 16.1523 19.7888 16.1536H37.2087C38.7491 16.1535 40.2306 16.7449 41.3474 17.8058C42.4642 18.8666 43.1309 20.3159 43.2099 21.8541ZM28.8439 14.1028C30.0113 12.4174 31.6312 11.0962 33.5168 10.2913V14.1028H28.8439ZM62.8435 62.7708V30.6907H64.3084V62.7708H62.8435ZM65.1873 20.9518V28.6399H61.9646V18.9028H65.1873V20.9518ZM61.6593 71.1186L61.923 64.8215H65.23L65.4937 71.1186H61.6593ZM70.3728 19.3305L67.2392 19.7735V18.584L70.3728 17.3887V19.3305Z" fill="#57836B"/>
</g>
</g>
</svg>
