<svg width="44" height="44" viewBox="0 0 44 44" fill="none" xmlns="http://www.w3.org/2000/svg">
<g id="pricetag2-svgrepo-com 1" clip-path="url(#clip0_160_214)">
<g id="Clip path group">
<mask id="mask0_160_214" style="mask-type:luminance" maskUnits="userSpaceOnUse" x="0" y="0" width="44" height="44">
<g id="clip-pricetag2">
<path id="Vector" d="M44 0H0V44H44V0Z" fill="white"/>
</g>
</mask>
<g mask="url(#mask0_160_214)">
<g id="pricetag2">
<g id="Group 2401">
<g id="Group 2397">
<g id="Group 2396">
<g id="Group 2395">
<path id="Path 3856" d="M26.356 18.4509L27.0765 17.7304C27.4432 17.3637 27.4831 17.0393 27.1961 16.7569C26.9092 16.4746 26.5824 16.5204 26.2157 16.8944L25.509 17.6012C24.703 16.8408 23.6513 16.3945 22.5445 16.343C21.6981 16.3893 20.8876 16.7004 20.2275 17.2324C19.5675 17.7643 19.0914 18.4902 18.8664 19.3075C18.7419 19.9194 18.7798 20.5532 18.9764 21.1459C19.2239 21.8562 19.5403 22.5405 19.921 23.1891L16.819 26.2898C16.622 25.9598 16.5025 25.5893 16.4697 25.2063C16.4462 24.8897 16.4893 24.5716 16.5963 24.2727C16.7504 23.8805 16.9253 23.4968 17.1201 23.1231C17.2329 22.9153 17.2703 22.6748 17.226 22.4425C17.1725 22.1943 17.0444 21.9683 16.8589 21.7949C16.7459 21.6758 16.6092 21.5817 16.4576 21.5187C16.3061 21.4557 16.143 21.4252 15.9789 21.4291C15.8266 21.4255 15.675 21.4525 15.5333 21.5085C15.3916 21.5644 15.2626 21.6483 15.1539 21.755C14.853 22.0625 14.6161 22.4266 14.4568 22.8262C14.2738 23.286 14.1755 23.7751 14.1666 24.2699C14.1534 24.8391 14.2467 25.4057 14.4416 25.9405C14.6744 26.569 15.0114 27.1538 15.4385 27.6703L13.6386 29.4715C13.47 29.6175 13.3461 29.8082 13.2811 30.0216C13.2686 30.1117 13.2794 30.2036 13.3127 30.2883C13.3459 30.3731 13.4004 30.4479 13.4709 30.5055C13.5297 30.5826 13.6113 30.6392 13.7041 30.6673C13.7969 30.6955 13.8962 30.6937 13.9879 30.6623C14.2337 30.5382 14.4543 30.3694 14.6382 30.1645L16.2993 28.5049C16.9165 29.0486 17.6518 29.4412 18.447 29.6517C19.1482 29.8339 19.8857 29.8224 20.581 29.6186C21.2543 29.4172 21.8665 29.0504 22.3616 28.5517C22.7492 28.1715 23.0535 27.715 23.2554 27.211C23.445 26.7305 23.5267 26.2141 23.4946 25.6985C23.4734 25.2089 23.3591 24.7278 23.1577 24.2809C22.9561 23.8299 22.655 23.2529 22.2544 22.5498L25.0291 19.7764C25.2153 20.109 25.3091 20.4852 25.3009 20.8663C25.2927 21.2473 25.1827 21.6192 24.9824 21.9434C24.8108 22.1742 24.7301 22.46 24.7554 22.7465C24.7808 23.0329 24.9105 23.3001 25.1199 23.4971C25.2277 23.6088 25.3573 23.6971 25.5006 23.7567C25.6439 23.8163 25.7979 23.8459 25.9531 23.8437C26.1062 23.8481 26.2585 23.8208 26.4004 23.7636C26.5424 23.7063 26.671 23.6203 26.7781 23.5109C27.0007 23.2743 27.1703 22.9931 27.2759 22.6859C27.412 22.312 27.4917 21.92 27.5124 21.5227C27.5596 20.9932 27.4833 20.4599 27.2896 19.9648C27.0565 19.416 26.7418 18.9056 26.356 18.4509ZM20.4944 27.1272C20.1465 27.4815 19.6761 27.6891 19.1799 27.7074C18.6126 27.7182 18.0576 27.5423 17.6 27.2069L20.5205 24.2864C20.7986 24.7746 20.9737 25.3146 21.0348 25.8731C21.0409 26.1095 20.9951 26.3443 20.9006 26.561C20.806 26.7777 20.665 26.971 20.4875 27.1272H20.4944ZM21.6549 21.458C21.433 21.027 21.2958 20.5575 21.2506 20.0748C21.2855 19.6532 21.4718 19.2584 21.7751 18.9635C22.0784 18.6685 22.4782 18.4933 22.9006 18.4702C23.3639 18.5208 23.8113 18.6683 24.2138 18.9033L21.6549 21.458Z" fill="#57836B"/>
</g>
</g>
</g>
<g id="Group 2400">
<g id="Group 2399">
<g id="Group 2398">
<path id="Path 3857" d="M43.3345 1.39415C43.3335 1.30424 43.3137 1.21553 43.2764 1.1337C43.2391 1.05187 43.1852 0.978686 43.118 0.918896C43.0508 0.859105 42.9719 0.814019 42.8863 0.786465C42.8007 0.758911 42.7103 0.749515 42.6209 0.758896C42.4407 0.76814 42.2712 0.847001 42.148 0.978859C42.0249 1.11072 41.9578 1.28527 41.9609 1.46566C41.9609 1.55228 41.943 3.60515 37.4041 4.1854C36.6178 4.28618 35.8573 4.53285 35.1615 4.91277L32.9436 2.69354C32.773 2.52281 32.5604 2.40001 32.3272 2.33749C32.0941 2.27498 31.8486 2.27495 31.6154 2.33741L20.5934 5.29227C20.2442 5.30335 19.9124 5.44689 19.6653 5.69376L1.06701 24.292C0.809236 24.5499 0.664429 24.8995 0.664429 25.2641C0.664429 25.6287 0.809236 25.9784 1.06701 26.2363L17.677 42.8449C17.9349 43.1027 18.2845 43.2475 18.6491 43.2475C19.0137 43.2475 19.3634 43.1027 19.6213 42.8449L38.225 24.248C38.4712 24.0016 38.6147 23.6708 38.6265 23.3227L41.58 12.2979C41.6425 12.0647 41.6424 11.8192 41.5799 11.5861C41.5174 11.3529 41.3946 11.1403 41.2239 10.9696L36.1955 5.94129C36.6373 5.74485 37.105 5.61287 37.5843 5.54941C43.4789 4.79591 43.3428 1.53165 43.3345 1.39415ZM35.9631 22.6145L18.6491 39.9285L3.9875 25.2641L21.3015 7.94878L31.5645 5.19878L33.066 6.70163C32.3739 7.59984 31.8329 8.60486 31.4641 9.67714C30.7501 9.66937 30.0581 9.92371 29.519 10.392C28.98 10.8602 28.6313 11.5099 28.5391 12.2179C28.4469 12.926 28.6175 13.6433 29.0187 14.234C29.4198 14.8247 30.0237 15.2477 30.7158 15.4231C31.408 15.5985 32.1404 15.5139 32.7744 15.1855C33.4085 14.8571 33.9001 14.3076 34.1561 13.641C34.4122 12.9745 34.4149 12.2372 34.1639 11.5688C33.9128 10.9003 33.4253 10.3472 32.7938 10.014C33.0907 9.1768 33.5116 8.38889 34.0423 7.67653L38.7173 12.3515L35.9631 22.6145ZM32.4638 11.4495C32.6559 11.6419 32.7867 11.8869 32.8396 12.1535C32.8926 12.4202 32.8653 12.6966 32.7611 12.9478C32.657 13.199 32.4808 13.4136 32.2547 13.5646C32.0286 13.7157 31.7628 13.7963 31.4909 13.7963C31.2191 13.7963 30.9533 13.7157 30.7272 13.5646C30.5011 13.4136 30.3249 13.199 30.2208 12.9478C30.1166 12.6966 30.0893 12.4202 30.1423 12.1535C30.1952 11.8869 30.326 11.6419 30.5181 11.4495C30.6626 11.3085 30.8369 11.2018 31.0282 11.1374C30.9311 11.5389 30.8572 11.9456 30.8069 12.3556C30.7896 12.5366 30.8447 12.7171 30.9602 12.8575C31.0756 12.9979 31.242 13.0869 31.4229 13.105C31.4458 13.1064 31.4687 13.1064 31.4916 13.105C31.6629 13.1059 31.8283 13.0427 31.9554 12.928C32.0826 12.8133 32.1624 12.6553 32.1791 12.4849C32.2258 12.1147 32.2933 11.7475 32.3813 11.3849C32.4033 11.4124 32.4376 11.4248 32.4638 11.4495Z" fill="#57836B"/>
</g>
</g>
</g>
</g>
</g>
</g>
</g>
</g>
<defs>
<clipPath id="clip0_160_214">
<rect width="44" height="44" fill="white"/>
</clipPath>
</defs>
</svg>
