<svg width="45" height="44" viewBox="0 0 45 44" fill="none" xmlns="http://www.w3.org/2000/svg">
<g id="protected-user-svgrepo-com 1" clip-path="url(#clip0_160_228)">
<g id="Group">
<path id="Vector" d="M21.3488 21.9553L26.1836 20.1079C25.1365 19.2324 23.9497 18.5231 22.6635 18.0178C21.179 18.9755 19.49 19.4871 17.7194 19.4871C15.9488 19.4871 14.2598 18.9755 12.7753 18.0178C8.56667 19.6712 5.41194 23.5011 4.78577 28.2204L3.62511 36.9692C3.54507 37.5722 3.72918 38.1806 4.12997 38.638C4.53076 39.0955 5.10961 39.3579 5.71795 39.3579H21.5702C19.684 35.8127 18.3335 31.3901 17.9469 27.4584C17.7123 25.0733 19.1112 22.8104 21.3488 21.9553Z" fill="#57836B"/>
<path id="Vector_2" d="M17.7194 16.539C21.5894 16.539 24.7267 12.8366 24.7267 8.2695C24.7267 3.70238 21.5894 0 17.7194 0C13.8494 0 10.7122 3.70238 10.7122 8.2695C10.7122 12.8366 13.8494 16.539 17.7194 16.539Z" fill="#57836B"/>
<path id="Vector_3" d="M39.8612 24.7091L31.9822 21.6984C31.7081 21.5937 31.4197 21.5413 31.1311 21.5413C30.8426 21.5413 30.554 21.5936 30.2799 21.6984L22.4009 24.7091C21.3978 25.0924 20.7755 26.1012 20.8806 27.1699C21.5687 34.1658 25.8848 44 31.1311 44C36.3772 44 40.6933 34.1658 41.3814 27.1699C41.4867 26.0996 40.8659 25.093 39.8612 24.7091Z" fill="#57836B"/>
</g>
</g>
<defs>
<clipPath id="clip0_160_228">
<rect width="44" height="44" fill="white" transform="translate(0.5)"/>
</clipPath>
</defs>
</svg>
