<svg width="75" height="75" viewBox="0 0 75 75" fill="none" xmlns="http://www.w3.org/2000/svg">
<g id="room 1" clip-path="url(#clip0_161_227)">
<g id="Group">
<path id="Vector" d="M74.2919 61.5993L56.5286 53.3097C56.504 53.2815 56.4733 53.2582 56.4451 53.2324C56.4144 53.2042 56.3838 53.1772 56.3506 53.1514C56.3285 53.1342 56.3101 53.1121 56.2868 53.0962C56.2463 53.0692 56.2021 53.0545 56.1592 53.0336C56.1359 53.0213 56.1175 53.0041 56.0941 52.9931L47.2941 49.222L33.2908 43.2199L37.1576 41.9313L46.5516 45.819H46.5529L72.3223 56.482C72.4708 56.5438 72.6302 56.5755 72.7911 56.5752C73.0304 56.5752 73.2685 56.5053 73.4734 56.369C73.641 56.2566 73.7783 56.1046 73.8733 55.9266C73.9683 55.7485 74.0181 55.5499 74.0183 55.348V16.0785C74.0183 15.5814 73.7188 15.1335 73.2611 14.9445L63.4437 10.8814H63.4425L37.673 0.21845C37.5829 0.181309 37.4885 0.155345 37.392 0.141138C37.3896 0.141138 37.3883 0.139911 37.3859 0.139911C37.2022 0.114134 37.0152 0.130073 36.8386 0.186544C36.8312 0.188998 36.8226 0.186544 36.8152 0.188998L0 12.4607L0.776801 14.7887L35.9758 3.05445V39.7372L31.0672 41.373V30.8046C31.0672 30.4155 30.8831 30.0498 30.5714 29.8179C30.4172 29.7038 30.2384 29.6273 30.0494 29.5947C29.8604 29.5621 29.6664 29.5743 29.4829 29.6301L1.25785 38.2204C1.00613 38.2971 0.785708 38.4526 0.629062 38.664C0.472416 38.8755 0.387836 39.1316 0.387787 39.3948V59.0296C0.387758 59.261 0.453188 59.4878 0.576525 59.6836C0.699861 59.8795 0.876075 60.0365 1.08482 60.1365L14.1395 66.3803L8.46996 68.9574C8.03431 69.1538 7.75452 69.587 7.75083 70.0643C7.74715 70.5417 8.02081 70.9786 8.45278 71.1835L15.822 74.6748L16.8712 72.4561L11.8913 70.0975L17.0283 67.7634L29.3086 73.6366C29.3442 73.6538 29.3822 73.6599 29.4178 73.6722C29.4583 73.6869 29.4976 73.7017 29.5393 73.7127C29.6105 73.7311 29.6829 73.7397 29.7553 73.7446C29.7848 73.7458 29.8118 73.7557 29.84 73.7557C29.851 73.7557 29.8608 73.752 29.8707 73.7508C29.9467 73.7483 30.0204 73.7348 30.094 73.7188C30.1259 73.7115 30.159 73.7103 30.1909 73.7004C30.2229 73.6906 30.2535 73.6747 30.2854 73.6624C30.2977 73.6575 30.31 73.6599 30.3223 73.655L56.0929 62.6105C56.3141 62.5167 56.5027 62.3598 56.6352 62.1595C56.7677 61.9591 56.8381 61.7241 56.8378 61.4839V56.1629L70.8386 62.6976L48.9667 72.6389L49.9828 74.8724L74.2809 63.8278C74.4943 63.7308 74.6755 63.5745 74.8029 63.3777C74.9304 63.1808 74.9987 62.9516 74.9999 62.7171C75.001 62.4826 74.935 62.2527 74.8095 62.0546C74.684 61.8565 74.5044 61.6985 74.2919 61.5993ZM64.2009 44.3035V13.8524L71.5639 16.8982V53.511L64.2009 50.4639V44.3035ZM61.7465 49.449L50.3534 44.7342L56.7507 43.1364L61.7465 45.1343V49.449ZM53.1563 41.5043V31.763L55.6106 31.1494V40.8907L53.1563 41.5043ZM61.7465 42.4909L58.065 41.0183V31.3899L59.9058 32.1262L61.7465 32.8625V42.4909ZM61.7465 30.2192L59.9058 29.4829L58.065 28.7466V26.4812L61.7465 27.9538V30.2192ZM48.2476 7.25016L61.7465 12.8363V25.3105L58.065 23.8379V19.76H55.6106V23.7103L48.2476 25.551V7.25016ZM48.2476 28.0814L55.6106 26.2407V28.619L48.2476 30.4597V28.0814ZM48.2476 32.9901L50.7019 32.3766V42.1179L48.2476 42.7315V32.9901ZM38.4302 3.18821L45.7932 6.23529V42.848L38.4302 39.801V3.18821ZM29.7688 44.3808L43.7242 50.362L21.802 59.961L4.99215 51.9205L6.87954 51.3462L14.2438 49.1054L17.3805 48.1507L19.1525 47.6119H19.1537L26.5168 45.3711L29.7688 44.3808ZM7.75083 48.5164V45.1883L12.6595 43.5524V47.0229L7.75083 48.5164ZM20.0226 44.7821V41.5067L24.9313 39.8709V43.2874L22.8856 43.9095L20.0226 44.7821ZM2.84214 40.3041L28.6128 32.4612V42.1682L27.3856 42.5412V38.1676C27.3858 37.9732 27.3397 37.7815 27.2512 37.6085C27.1626 37.4354 27.0341 37.2859 26.8763 37.1724C26.7186 37.0586 26.5361 36.984 26.3439 36.9545C26.1517 36.9251 25.9552 36.9417 25.7707 37.003L18.4076 39.4574C18.1632 39.5388 17.9505 39.6951 17.7999 39.9041C17.6492 40.1131 17.5682 40.3643 17.5682 40.6219V45.5282L15.1139 46.2755V41.8491C15.1139 41.6547 15.0678 41.4631 14.9792 41.2901C14.8907 41.1171 14.7623 40.9675 14.6046 40.8539C14.4468 40.7403 14.2643 40.6658 14.0721 40.6364C13.8799 40.6069 13.6835 40.6234 13.4989 40.6845L6.13587 43.1389C5.89141 43.2203 5.67878 43.3766 5.52812 43.5856C5.37747 43.7947 5.29642 44.0458 5.29649 44.3035V49.2637L2.84214 50.0098V40.3041ZM28.6128 70.581L17.5731 65.3004H17.5719L2.84214 58.2564V53.614L28.6128 65.9386V70.581ZM29.8682 63.818L24.7251 61.3587L46.8155 51.6874L52.4948 54.1209L29.8682 63.818ZM54.3835 60.6752L31.0672 70.6681V65.9754L54.3835 55.9825V60.6752Z" fill="#57836B"/>
<path id="Vector_2" d="M26.8763 10.1745C26.5535 9.94379 26.1424 9.87997 25.7706 10.0051L3.68143 17.3682C3.43697 17.4496 3.22434 17.6059 3.07368 17.8149C2.92302 18.024 2.84198 18.2751 2.84204 18.5328V33.2589C2.84199 33.4533 2.88813 33.6449 2.97668 33.8179C3.06523 33.9909 3.19363 34.1405 3.35132 34.2541C3.56024 34.4051 3.81147 34.4862 4.06922 34.486C4.1993 34.486 4.3306 34.4652 4.457 34.4235L26.5461 27.0604C26.7906 26.979 27.0032 26.8227 27.1539 26.6137C27.3046 26.4046 27.3856 26.1535 27.3855 25.8958V11.1697C27.3856 10.9754 27.3394 10.7837 27.2509 10.6107C27.1623 10.4377 27.0339 10.2882 26.8763 10.1745ZM24.9312 25.0123L5.29639 31.5568V19.4176L24.9312 12.8731V25.0123Z" fill="#57836B"/>
<path id="Vector_3" d="M20.3809 17.6641L16.0084 22.0377L13.0473 21.0498C12.8699 20.9913 12.6815 20.9739 12.4963 20.9988C12.3112 21.0236 12.1341 21.0902 11.9784 21.1934L8.29688 23.6478L9.65781 25.6898L12.8399 23.568L15.952 24.605C16.3925 24.7522 16.8797 24.6356 17.2074 24.308L22.1161 19.3993L20.3809 17.6641Z" fill="#57836B"/>
</g>
</g>
<defs>
<clipPath id="clip0_161_227">
<rect width="75" height="75" fill="white"/>
</clipPath>
</defs>
</svg>
