<svg width="82" height="78" viewBox="0 0 82 78" fill="none" xmlns="http://www.w3.org/2000/svg">
<g id="toolbox 1">
<g id="Group">
<path id="Vector" d="M39.5818 30.086V48.8283M32.0803 25.3984V16.0235H39.5818V25.3984M32.0803 48.8283V30.086M32.0803 34.7735H35.8311M32.0803 39.4609H34.5802M32.0803 44.1484H35.8311M32.0803 20.7109H35.8311M64.3574 48.836L62.7641 36.0431C62.6609 35.2152 61.8616 34.6226 60.9787 34.7192L56.7269 35.1845C55.8438 35.2813 55.2117 36.0307 55.3147 36.8584L56.8064 48.8359M60.1798 25.3984L59.026 16.1336M61.3454 34.7572L60.7636 30.086M55.7302 30.0895L56.3792 35.3007M54.0597 16.6774L55.1459 25.3984M62.5001 8.67432L48.8461 10.1689M49.7158 17.1527L63.3698 15.6581M20.3223 30.086V34.7735M25.3224 25.3984V16.0235L27.3136 11.336L25.8164 1.96094H19.8281L18.3311 11.336L20.3223 16.0235V25.3984M25.3224 34.7735V30.086M19.0724 39.7603V36.2048C19.0724 35.3714 19.793 34.6958 20.682 34.6958H24.9626C25.8516 34.6958 26.5723 35.3714 26.5723 36.2048V48.8283M19.0724 48.8283V44.6929M13.331 76.9609H5.83105V17.5325C5.83105 16.6991 6.5517 16.0235 7.44072 16.0235H11.7213C12.6103 16.0235 13.331 16.6991 13.331 17.5325V76.9609ZM13.331 76.9609H73.3311M80.8311 60.5044V76.9609H73.3311M73.3311 76.9609V17.5325C73.3311 16.6991 74.0518 16.0235 74.9408 16.0235H79.2214C80.1104 16.0235 80.8311 16.6991 80.8311 17.5325V55.5719M73.3311 30.086H13.3312M50.238 25.3984H73.3311M13.3312 25.3984H44.9765M13.3312 48.836H73.3311M13.6161 65.2421H73.046M13.6161 57.4388H73.046M13.6161 72.2735H73.046M47.5004 19.5745C48.8719 19.4243 49.8538 18.2604 49.6936 16.9748L48.8682 10.347C48.708 9.06125 47.4665 8.14072 46.0952 8.29087C44.7237 8.44102 43.7418 9.60496 43.902 10.8905L44.7274 17.5184C44.8876 18.8041 46.1291 19.7246 47.5004 19.5745ZM66.1208 17.5363C67.4922 17.3862 68.4741 16.2222 68.3139 14.9366L67.4885 8.30883C67.3283 7.0231 66.0868 6.10257 64.7155 6.25272C63.3441 6.40287 62.3622 7.56682 62.5223 8.85239L63.3478 15.4802C63.5078 16.7658 64.7493 17.6865 66.1208 17.5363Z" stroke="#57836B" stroke-width="2" stroke-miterlimit="10" stroke-linecap="round" stroke-linejoin="round"/>
</g>
</g>
</svg>
